Pretension2-ThinItalic.ufo
<glyph name="exclam" format="2">
  <advance width="538"/>
  <unicode hex="0021"/>
  <unicode hex="E2AF"/>
  <outline>
    <contour>
      <point x="225" y="434" type="line"/>
      <point x="400" y="1490" type="line"/>
      <point x="446" y="1490" type="line"/>
      <point x="271" y="434" type="line"/>
    </contour>
    <contour>
      <point x="131" y="0" type="line"/>
      <point x="146" y="90" type="line"/>
      <point x="236" y="90" type="line"/>
      <point x="221" y="0" type="line"/>
    </contour>
  </outline>
</glyph>
<glyph name="percent" format="2">
  <advance width="1720"/>
  <unicode hex="0025"/>
  <outline>
    <contour>
      <point x="287" y="1168" type="qcurve" smooth="yes"/>
      <point x="295" y="1214" type="line" smooth="yes"/>
      <point x="310" y="1302"/>
      <point x="396" y="1433"/>
      <point x="519" y="1506"/>
      <point x="588" y="1506" type="qcurve" smooth="yes"/>
      <point x="657" y="1506"/>
      <point x="755" y="1433"/>
      <point x="799" y="1302"/>
      <point x="784" y="1214" type="qcurve" smooth="yes"/>
      <point x="776" y="1168" type="line" smooth="yes"/>
      <point x="762" y="1082"/>
      <point x="675" y="951"/>
      <point x="553" y="878"/>
      <point x="484" y="878" type="qcurve" smooth="yes"/>
      <point x="415" y="878"/>
      <point x="316" y="951"/>
      <point x="273" y="1082"/>
    </contour>
    <contour>
      <point x="341" y="1214" type="qcurve" smooth="yes"/>
      <point x="333" y="1168" type="line" smooth="yes"/>
      <point x="315" y="1057"/>
      <point x="408" y="924"/>
      <point x="492" y="924" type="qcurve" smooth="yes"/>
      <point x="575" y="924"/>
      <point x="712" y="1057"/>
      <point x="730" y="1168" type="qcurve" smooth="yes"/>
      <point x="738" y="1214" type="line" smooth="yes"/>
      <point x="757" y="1326"/>
      <point x="664" y="1460"/>
      <point x="581" y="1460" type="qcurve" smooth="yes"/>
      <point x="497" y="1460"/>
      <point x="360" y="1326"/>
    </contour>
    <contour>
      <point x="997" y="274" type="qcurve" smooth="yes"/>
      <point x="1005" y="320" type="line" smooth="yes"/>
      <point x="1020" y="408"/>
      <point x="1106" y="539"/>
      <point x="1229" y="612"/>
      <point x="1298" y="612" type="qcurve" smooth="yes"/>
      <point x="1367" y="612"/>
      <point x="1465" y="539"/>
      <point x="1509" y="408"/>
      <point x="1494" y="320" type="qcurve" smooth="yes"/>
      <point x="1486" y="274" type="line" smooth="yes"/>
      <point x="1472" y="188"/>
      <point x="1385" y="57"/>
      <point x="1263" y="-16"/>
      <point x="1194" y="-16" type="qcurve" smooth="yes"/>
      <point x="1125" y="-16"/>
      <point x="1026" y="57"/>
      <point x="983" y="188"/>
    </contour>
    <contour>
      <point x="1051" y="320" type="qcurve" smooth="yes"/>
      <point x="1043" y="274" type="line" smooth="yes"/>
      <point x="1025" y="163"/>
      <point x="1118" y="30"/>
      <point x="1202" y="30" type="qcurve" smooth="yes"/>
      <point x="1285" y="30"/>
      <point x="1422" y="163"/>
      <point x="1440" y="274" type="qcurve" smooth="yes"/>
      <point x="1448" y="320" type="line" smooth="yes"/>
      <point x="1467" y="432"/>
      <point x="1374" y="566"/>
      <point x="1291" y="566" type="qcurve" smooth="yes"/>
      <point x="1207" y="566"/>
      <point x="1070" y="432"/>
    </contour>
    <contour>
      <point x="229" y="0" type="line"/>
      <point x="1496" y="1490" type="line"/>
      <point x="1552" y="1490" type="line"/>
      <point x="283" y="0" type="line"/>
    </contour>
  </outline>
</glyph>
<glyph name="period" format="2">
  <advance width="554"/>
  <unicode hex="002E"/>
  <unicode hex="E2AA"/>
  <outline>
    <contour>
      <point x="139" y="0" type="line"/>
      <point x="154" y="90" type="line"/>
      <point x="244" y="90" type="line"/>
      <point x="229" y="0" type="line"/>
    </contour>
  </outline>
</glyph>
<glyph name="s" format="2">
  <advance width="1011"/>
  <unicode hex="0073"/>
  <anchor x="641" y="0" name="m.uni0326"/>
  <anchor x="850" y="1242" name="m.uni030F_1"/>
  <anchor x="615" y="0" name="m.uni0327_3"/>
  <outline>
    <contour>
      <point x="411" y="-24" type="qcurve" smooth="yes"/>
      <point x="313" y="-24"/>
      <point x="173" y="40"/>
      <point x="94" y="160"/>
      <point x="87" y="244" type="qcurve"/>
      <point x="86" y="253"/>
      <point x="87" y="248"/>
      <point x="86" y="258" type="qcurve"/>
      <point x="132" y="264" type="line"/>
      <point x="137" y="145"/>
      <point x="280" y="22"/>
      <point x="412" y="22" type="qcurve" smooth="yes"/>
      <point x="514" y="22"/>
      <point x="685" y="99"/>
      <point x="788" y="236"/>
      <point x="788" y="325" type="qcurve" smooth="yes"/>
      <point x="788" y="395"/>
      <point x="698" y="490"/>
      <point x="608" y="514" type="qcurve" smooth="yes"/>
      <point x="441" y="558" type="line" smooth="yes"/>
      <point x="332" y="587"/>
      <point x="220" y="709"/>
      <point x="220" y="795" type="qcurve" smooth="yes"/>
      <point x="220" y="894"/>
      <point x="328" y="1047"/>
      <point x="507" y="1134"/>
      <point x="616" y="1134" type="qcurve" smooth="yes"/>
      <point x="745" y="1134"/>
      <point x="898" y="1009"/>
      <point x="918" y="887" type="qcurve"/>
      <point x="919" y="883"/>
      <point x="918" y="886"/>
      <point x="919" y="881" type="qcurve"/>
      <point x="874" y="872" type="line"/>
      <point x="858" y="981"/>
      <point x="730" y="1088"/>
      <point x="615" y="1088" type="qcurve" smooth="yes"/>
      <point x="516" y="1088"/>
      <point x="358" y="1011"/>
      <point x="267" y="879"/>
      <point x="267" y="796" type="qcurve" smooth="yes"/>
      <point x="267" y="726"/>
      <point x="359" y="627"/>
      <point x="454" y="602" type="qcurve" smooth="yes"/>
      <point x="622" y="558" type="line" smooth="yes"/>
      <point x="726" y="531"/>
      <point x="834" y="413"/>
      <point x="834" y="327" type="qcurve" smooth="yes"/>
      <point x="834" y="248"/>
      <point x="766" y="119"/>
      <point x="648" y="26"/>
      <point x="495" y="-24"/>
    </contour>
  </outline>
</glyph>
<glyph name="ordfeminine" format="2">
  <advance width="738"/>
  <unicode hex="00AA"/>
  <outline>
    <component base="amod" xOffset="-15" yOffset="-40"/>
    <contour>
      <point x="634" y="522" type="line"/>
      <point x="626" y="476" type="line"/>
      <point x="83" y="476" type="line"/>
      <point x="91" y="522" type="line"/>
    </contour>
  </outline>
</glyph>
<glyph name="degree" format="2">
  <advance width="930"/>
  <unicode hex="00B0"/>
  <outline>
    <contour>
      <point x="572" y="904" type="qcurve"/>
      <point x="488" y="905"/>
      <point x="351" y="986"/>
      <point x="270" y="1124"/>
      <point x="270" y="1208" type="qcurve" smooth="yes"/>
      <point x="270" y="1292"/>
      <point x="351" y="1429"/>
      <point x="488" y="1510"/>
      <point x="572" y="1510" type="qcurve" smooth="yes"/>
      <point x="656" y="1510"/>
      <point x="793" y="1429"/>
      <point x="874" y="1292"/>
      <point x="874" y="1208" type="qcurve" smooth="yes"/>
      <point x="874" y="1124"/>
      <point x="793" y="986"/>
      <point x="656" y="905"/>
    </contour>
    <contour>
      <point x="572" y="952" type="qcurve" smooth="yes"/>
      <point x="643" y="952"/>
      <point x="759" y="1020"/>
      <point x="828" y="1137"/>
      <point x="828" y="1208" type="qcurve" smooth="yes"/>
      <point x="828" y="1279"/>
      <point x="759" y="1394"/>
      <point x="643" y="1464"/>
      <point x="572" y="1464" type="qcurve" smooth="yes"/>
      <point x="501" y="1464"/>
      <point x="385" y="1394"/>
      <point x="316" y="1279"/>
      <point x="316" y="1208" type="qcurve" smooth="yes"/>
      <point x="316" y="1137"/>
      <point x="385" y="1020"/>
      <point x="501" y="952"/>
    </contour>
  </outline>
</glyph>
<glyph name="onesuperior" format="2">
  <advance width="538"/>
  <unicode hex="00B9"/>
  <outline>
    <contour>
      <point x="383" y="916" type="line"/>
      <point x="497" y="1603" type="line"/>
      <point x="500" y="1601" type="line"/>
      <point x="445" y="1543"/>
      <point x="343" y="1517"/>
      <point x="266" y="1517" type="curve"/>
      <point x="273" y="1560" type="line"/>
      <point x="364" y="1560"/>
      <point x="475" y="1597"/>
      <point x="517" y="1683" type="curve"/>
      <point x="558" y="1683" type="line"/>
      <point x="431" y="916" type="line"/>
    </contour>
  </outline>
</glyph>
<glyph name="germandbls" format="2">
  <advance width="1178"/>
  <unicode hex="00DF"/>
  <outline>
    <contour>
      <point x="139" y="0" type="line"/>
      <point x="330" y="1152" type="line" smooth="yes"/>
      <point x="349" y="1263"/>
      <point x="462" y="1423"/>
      <point x="638" y="1510"/>
      <point x="749" y="1510" type="qcurve" smooth="yes"/>
      <point x="860" y="1510"/>
      <point x="1007" y="1423"/>
      <point x="1069" y="1263"/>
      <point x="1050" y="1152" type="qcurve" smooth="yes"/>
      <point x="1026" y="1008"/>
      <point x="851" y="811"/>
      <point x="708" y="775" type="qcurve"/>
      <point x="707" y="771" type="line"/>
      <point x="859" y="746"/>
      <point x="1017" y="539"/>
      <point x="991" y="386" type="qcurve" smooth="yes"/>
      <point x="972" y="271"/>
      <point x="835" y="97"/>
      <point x="624" y="0"/>
      <point x="495" y="0" type="qcurve" smooth="yes"/>
      <point x="393" y="0" type="line"/>
      <point x="401" y="46" type="line"/>
      <point x="503" y="46" type="line" smooth="yes"/>
      <point x="619" y="46"/>
      <point x="807" y="131"/>
      <point x="929" y="284"/>
      <point x="945" y="386" type="qcurve"/>
      <point x="973" y="551"/>
      <point x="757" y="749"/>
      <point x="545" y="749" type="qcurve" smooth="yes"/>
      <point x="523" y="749" type="line"/>
      <point x="530" y="791" type="line"/>
      <point x="552" y="791" type="line" smooth="yes"/>
      <point x="674" y="791"/>
      <point x="864" y="878"/>
      <point x="986" y="1040"/>
      <point x="1004" y="1152" type="qcurve"/>
      <point x="1029" y="1299"/>
      <point x="890" y="1464"/>
      <point x="742" y="1464" type="qcurve" smooth="yes"/>
      <point x="594" y="1464"/>
      <point x="401" y="1299"/>
      <point x="376" y="1152" type="qcurve" smooth="yes"/>
      <point x="185" y="0" type="line"/>
    </contour>
  </outline>
</glyph>
<glyph name="ae" format="2">
  <advance width="1888"/>
  <unicode hex="00E6"/>
  <anchor x="1047" y="1303" name="m.uni030F_1"/>
  <outline>
    <contour>
      <point x="381" y="-23" type="qcurve" smooth="yes"/>
      <point x="289" y="-23"/>
      <point x="148" y="52"/>
      <point x="77" y="198"/>
      <point x="93" y="303" type="qcurve"/>
      <point x="103" y="359"/>
      <point x="156" y="459"/>
      <point x="262" y="540"/>
      <point x="437" y="594"/>
      <point x="567" y="614" type="qcurve" smooth="yes"/>
      <point x="875" y="661" type="line"/>
      <point x="899" y="803" type="line" smooth="yes"/>
      <point x="921" y="933"/>
      <point x="772" y="1088"/>
      <point x="628" y="1088" type="qcurve" smooth="yes"/>
      <point x="511" y="1088"/>
      <point x="318" y="984"/>
      <point x="268" y="890" type="qcurve"/>
      <point x="227" y="908" type="line"/>
      <point x="265" y="977"/>
      <point x="391" y="1079"/>
      <point x="550" y="1135"/>
      <point x="637" y="1135" type="qcurve" smooth="yes"/>
      <point x="722" y="1135"/>
      <point x="849" y="1084"/>
      <point x="928" y="995"/>
      <point x="958" y="874"/>
      <point x="945" y="803" type="qcurve" smooth="yes"/>
      <point x="870" y="349" type="line"/>
      <point x="861" y="349" type="line"/>
      <point x="806" y="215"/>
      <point x="645" y="52"/>
      <point x="465" y="-23"/>
    </contour>
    <contour>
      <point x="390" y="23" type="qcurve" smooth="yes"/>
      <point x="496" y="23"/>
      <point x="687" y="137"/>
      <point x="822" y="342"/>
      <point x="844" y="477" type="qcurve"/>
      <point x="867" y="614" type="line"/>
      <point x="579" y="570" type="line" smooth="yes"/>
      <point x="427" y="547"/>
      <point x="243" y="481"/>
      <point x="153" y="374"/>
      <point x="140" y="303" type="qcurve"/>
      <point x="120" y="176"/>
      <point x="265" y="23"/>
    </contour>
    <contour>
      <point x="1228" y="-23" type="qcurve" smooth="yes"/>
      <point x="1060" y="-23"/>
      <point x="856" y="175"/>
      <point x="832" y="335" type="qcurve"/>
      <point x="928" y="817" type="line"/>
      <point x="1007" y="961"/>
      <point x="1255" y="1135"/>
      <point x="1396" y="1135" type="qcurve" smooth="yes"/>
      <point x="1494" y="1135"/>
      <point x="1646" y="1051"/>
      <point x="1745" y="905"/>
      <point x="1783" y="713"/>
      <point x="1766" y="605" type="qcurve"/>
      <point x="1757" y="559" type="line"/>
      <point x="870" y="559" type="line"/>
      <point x="879" y="605" type="line"/>
      <point x="1719" y="605" type="line"/>
      <point x="1741" y="739"/>
      <point x="1666" y="958"/>
      <point x="1501" y="1088"/>
      <point x="1388" y="1088" type="qcurve" smooth="yes"/>
      <point x="1273" y="1088"/>
      <point x="1063" y="951"/>
      <point x="912" y="716"/>
      <point x="884" y="567" type="qcurve"/>
      <point x="884" y="561" type="line"/>
      <point x="860" y="415"/>
      <point x="922" y="170"/>
      <point x="1095" y="23"/>
      <point x="1236" y="23" type="qcurve" smooth="yes"/>
      <point x="1340" y="23"/>
      <point x="1491" y="96"/>
      <point x="1591" y="191"/>
      <point x="1617" y="224" type="qcurve"/>
      <point x="1649" y="198" type="line"/>
      <point x="1619" y="156"/>
      <point x="1504" y="52"/>
      <point x="1337" y="-23"/>
    </contour>
  </outline>
</glyph>
<glyph name="chook" format="2">
  <advance width="1095"/>
  <unicode hex="0188"/>
  <anchor x="633" y="0" name="m.uni0326"/>
  <anchor x="875" y="1242" name="m.uni030F_1"/>
  <anchor x="641" y="0" name="m.uni0327_3"/>
  <outline>
    <contour>
      <point x="986" y="885" type="line"/>
      <point x="891" y="1083" type="line" smooth="yes"/>
      <point x="847" y="1176"/>
      <point x="941" y="1303"/>
      <point x="1039" y="1303" type="qcurve" smooth="yes"/>
      <point x="1052" y="1303"/>
      <point x="1092" y="1303"/>
      <point x="1111" y="1303" type="qcurve"/>
      <point x="1103" y="1257" type="line"/>
      <point x="1084" y="1257"/>
      <point x="1044" y="1257"/>
      <point x="1031" y="1257" type="qcurve" smooth="yes"/>
      <point x="959" y="1257"/>
      <point x="901" y="1175"/>
      <point x="932" y="1105" type="qcurve" smooth="yes"/>
      <point x="1026" y="898" type="line"/>
    </contour>
    <contour>
      <point x="502" y="-16" type="qcurve" smooth="yes"/>
      <point x="387" y="-16"/>
      <point x="215" y="99"/>
      <point x="120" y="303"/>
      <point x="120" y="435" type="qcurve" smooth="yes"/>
      <point x="120" y="563"/>
      <point x="204" y="812"/>
      <point x="357" y="1014"/>
      <point x="563" y="1134"/>
      <point x="686" y="1134" type="qcurve" smooth="yes"/>
      <point x="780" y="1134"/>
      <point x="907" y="1068"/>
      <point x="985" y="978"/>
      <point x="1023" y="905"/>
      <point x="1026" y="898" type="qcurve"/>
      <point x="984" y="878" type="line"/>
      <point x="981" y="886"/>
      <point x="947" y="952"/>
      <point x="879" y="1030"/>
      <point x="768" y="1088"/>
      <point x="686" y="1088" type="qcurve" smooth="yes"/>
      <point x="568" y="1088"/>
      <point x="377" y="973"/>
      <point x="240" y="781"/>
      <point x="166" y="547"/>
      <point x="166" y="428" type="qcurve" smooth="yes"/>
      <point x="166" y="307"/>
      <point x="248" y="128"/>
      <point x="399" y="30"/>
      <point x="502" y="30" type="qcurve" smooth="yes"/>
      <point x="586" y="30"/>
      <point x="722" y="90"/>
      <point x="820" y="172"/>
      <point x="877" y="239"/>
      <point x="882" y="246" type="qcurve"/>
      <point x="919" y="219" type="line"/>
      <point x="914" y="212"/>
      <point x="852" y="139"/>
      <point x="744" y="50"/>
      <point x="595" y="-16"/>
    </contour>
  </outline>
</glyph>
<glyph name="phook" format="2">
  <advance width="1191"/>
  <unicode hex="01A5"/>
  <anchor x="209" y="-401" name="m.uni0326"/>
  <anchor x="768" y="1242" name="m.uni030F_1"/>
  <outline>
    <contour>
      <point x="260" y="928" type="line"/>
      <point x="291" y="1118" type="line"/>
      <point x="320" y="1292" type="line" smooth="yes"/>
      <point x="337" y="1394"/>
      <point x="445" y="1490"/>
      <point x="537" y="1490" type="qcurve" smooth="yes"/>
      <point x="551" y="1490"/>
      <point x="592" y="1490"/>
      <point x="609" y="1490" type="qcurve"/>
      <point x="601" y="1444" type="line"/>
      <point x="582" y="1444"/>
      <point x="542" y="1444"/>
      <point x="529" y="1444" type="qcurve" smooth="yes"/>
      <point x="457" y="1444"/>
      <point x="380" y="1374"/>
      <point x="366" y="1292" type="qcurve" smooth="yes"/>
      <point x="337" y="1118" type="line"/>
      <point x="306" y="928" type="line"/>
    </contour>
    <contour>
      <point x="36" y="-418" type="line"/>
      <point x="291" y="1118" type="line"/>
      <point x="337" y="1118" type="line"/>
      <point x="289" y="832" type="line"/>
      <point x="294" y="832" type="line"/>
      <point x="338" y="925"/>
      <point x="471" y="1061"/>
      <point x="634" y="1134"/>
      <point x="722" y="1134" type="qcurve" smooth="yes"/>
      <point x="834" y="1134"/>
      <point x="990" y="1022"/>
      <point x="1072" y="826"/>
      <point x="1072" y="698" type="qcurve" smooth="yes"/>
      <point x="1072" y="574"/>
      <point x="999" y="319"/>
      <point x="860" y="106"/>
      <point x="662" y="-24"/>
      <point x="537" y="-24" type="qcurve" smooth="yes"/>
      <point x="446" y="-24"/>
      <point x="306" y="50"/>
      <point x="218" y="187"/>
      <point x="204" y="280" type="qcurve"/>
      <point x="198" y="280" type="line"/>
      <point x="82" y="-418" type="line"/>
    </contour>
    <contour>
      <point x="538" y="22" type="qcurve" smooth="yes"/>
      <point x="652" y="22"/>
      <point x="832" y="144"/>
      <point x="959" y="343"/>
      <point x="1026" y="581"/>
      <point x="1026" y="697" type="qcurve" smooth="yes"/>
      <point x="1026" y="870"/>
      <point x="868" y="1088"/>
      <point x="721" y="1088" type="qcurve" smooth="yes"/>
      <point x="607" y="1088"/>
      <point x="426" y="967"/>
      <point x="298" y="768"/>
      <point x="231" y="530"/>
      <point x="231" y="414" type="qcurve" smooth="yes"/>
      <point x="231" y="242"/>
      <point x="390" y="22"/>
    </contour>
  </outline>
</glyph>
<glyph name="Tonefive" format="2">
  <advance width="1186"/>
  <unicode hex="01BC"/>
  <outline>
    <component base="five"/>
    <contour>
      <point x="251" y="1444" type="line"/>
      <point x="259" y="1490" type="line"/>
      <point x="467" y="1490" type="line"/>
      <point x="459" y="1444" type="line"/>
    </contour>
  </outline>
</glyph>
<glyph name="glottalinvertedstroke" format="2">
  <advance width="1032"/>
  <unicode hex="01BE"/>
  <outline>
    <contour>
      <point x="822" y="286" type="qcurve" smooth="yes"/>
      <point x="832" y="347"/>
      <point x="790" y="426"/>
      <point x="712" y="483"/>
      <point x="623" y="540"/>
      <point x="548" y="615"/>
      <point x="512" y="729"/>
      <point x="526" y="816" type="qcurve" smooth="yes"/>
      <point x="610" y="1334" type="line"/>
      <point x="658" y="1334" type="line"/>
      <point x="572" y="816" type="line" smooth="yes"/>
      <point x="559" y="736"/>
      <point x="597" y="633"/>
      <point x="674" y="564"/>
      <point x="763" y="509"/>
      <point x="840" y="447"/>
      <point x="880" y="357"/>
      <point x="868" y="286" type="qcurve" smooth="yes"/>
      <point x="853" y="193"/>
      <point x="731" y="56"/>
      <point x="542" y="-18"/>
      <point x="424" y="-18" type="qcurve" smooth="yes"/>
      <point x="304" y="-18"/>
      <point x="146" y="82"/>
      <point x="79" y="244"/>
      <point x="94" y="334" type="qcurve"/>
      <point x="140" y="334" type="line"/>
      <point x="127" y="253"/>
      <point x="182" y="113"/>
      <point x="321" y="28"/>
      <point x="432" y="28" type="qcurve" smooth="yes"/>
      <point x="532" y="28"/>
      <point x="700" y="93"/>
      <point x="810" y="210"/>
    </contour>
    <contour>
      <point x="862" y="1070" type="line"/>
      <point x="854" y="1022" type="line"/>
      <point x="312" y="1022" type="line"/>
      <point x="320" y="1070" type="line"/>
    </contour>
  </outline>
</glyph>
<glyph name="wynn" format="2">
  <advance width="1142"/>
  <unicode hex="01BF"/>
  <outline>
    <contour>
      <point x="248" y="952" type="line"/>
      <point x="46" y="-416" type="line"/>
      <point x="-2" y="-416" type="line"/>
      <point x="226" y="1118" type="line"/>
      <point x="264" y="1118" type="line"/>
    </contour>
    <contour>
      <point x="226" y="890" type="qcurve"/>
      <point x="210" y="932" type="line"/>
      <point x="278" y="1000"/>
      <point x="416" y="1090"/>
      <point x="558" y="1135"/>
      <point x="630" y="1134" type="qcurve"/>
      <point x="757" y="1135"/>
      <point x="928" y="1013"/>
      <point x="998" y="792"/>
      <point x="974" y="642" type="qcurve" smooth="yes"/>
      <point x="966" y="596" type="line" smooth="yes"/>
      <point x="936" y="409"/>
      <point x="728" y="126"/>
      <point x="345" y="-84"/>
      <point x="50" y="-164" type="qcurve"/>
      <point x="58" y="-118" type="line"/>
      <point x="345" y="-34"/>
      <point x="706" y="162"/>
      <point x="893" y="419"/>
      <point x="918" y="594" type="qcurve"/>
      <point x="926" y="644" type="line"/>
      <point x="945" y="782"/>
      <point x="886" y="981"/>
      <point x="737" y="1088"/>
      <point x="622" y="1088" type="qcurve" smooth="yes"/>
      <point x="555" y="1088"/>
      <point x="422" y="1044"/>
      <point x="290" y="957"/>
    </contour>
  </outline>
</glyph>
<glyph name="yogh" format="2">
  <advance width="1030"/>
  <unicode hex="021D"/>
  <outline>
    <contour>
      <point x="142" y="264" type="qcurve"/>
      <point x="152" y="312" type="line"/>
      <point x="335" y="333"/>
      <point x="645" y="475"/>
      <point x="847" y="692"/>
      <point x="866" y="824" type="qcurve" smooth="yes"/>
      <point x="883" y="940"/>
      <point x="758" y="1088"/>
      <point x="618" y="1088" type="qcurve" smooth="yes"/>
      <point x="524" y="1088"/>
      <point x="357" y="1016"/>
      <point x="243" y="884"/>
      <point x="228" y="792" type="qcurve"/>
      <point x="182" y="792" type="line"/>
      <point x="200" y="898"/>
      <point x="325" y="1051"/>
      <point x="509" y="1135"/>
      <point x="616" y="1134" type="qcurve"/>
      <point x="776" y="1135"/>
      <point x="934" y="960"/>
      <point x="910" y="818" type="qcurve" smooth="yes"/>
      <point x="887" y="676"/>
      <point x="669" y="441"/>
      <point x="337" y="286"/>
    </contour>
    <contour>
      <point x="680" y="494" type="qcurve"/>
      <point x="718" y="526" type="line"/>
      <point x="789" y="462"/>
      <point x="840" y="276"/>
      <point x="818" y="142" type="qcurve" smooth="yes"/>
      <point x="775" y="-129"/>
      <point x="394" y="-412"/>
      <point x="28" y="-436" type="qcurve"/>
      <point x="34" y="-388" type="line"/>
      <point x="259" y="-375"/>
      <point x="568" y="-251"/>
      <point x="745" y="-24"/>
      <point x="772" y="140" type="qcurve" smooth="yes"/>
      <point x="793" y="264"/>
      <point x="745" y="440"/>
    </contour>
  </outline>
</glyph>
<glyph name="estroke" format="2">
  <advance width="1180"/>
  <unicode hex="0247"/>
  <anchor x="708" y="0" name="m.uni0326"/>
  <anchor x="970" y="1242" name="m.uni030F_1"/>
  <anchor x="664" y="0" name="m.uni0327_3"/>
  <anchor x="1304" y="197" name="m.uni0328_4"/>
  <outline>
    <contour>
      <point x="-32" y="-418" type="line"/>
      <point x="1160" y="1490" type="line"/>
      <point x="1212" y="1490" type="line"/>
      <point x="24" y="-418" type="line"/>
    </contour>
    <contour>
      <point x="521" y="-23" type="curve" smooth="yes"/>
      <point x="257" y="-23"/>
      <point x="119" y="174"/>
      <point x="119" y="423" type="curve" smooth="yes"/>
      <point x="119" y="737"/>
      <point x="337" y="1135"/>
      <point x="689" y="1135" type="curve" smooth="yes"/>
      <point x="931" y="1135"/>
      <point x="1067" y="931"/>
      <point x="1067" y="706" type="curve" smooth="yes"/>
      <point x="1067" y="656"/>
      <point x="1060" y="608"/>
      <point x="1050" y="559" type="curve"/>
      <point x="154" y="559" type="line"/>
      <point x="163" y="605" type="line"/>
      <point x="1012" y="605" type="line"/>
      <point x="1017" y="638"/>
      <point x="1020" y="671"/>
      <point x="1020" y="705" type="curve" smooth="yes"/>
      <point x="1020" y="903"/>
      <point x="904" y="1088"/>
      <point x="689" y="1088" type="curve" smooth="yes"/>
      <point x="418" y="1088"/>
      <point x="225" y="809"/>
      <point x="180" y="567" type="curve"/>
      <point x="170" y="557"/>
      <point x="166" y="456"/>
      <point x="166" y="437" type="curve" smooth="yes"/>
      <point x="166" y="209"/>
      <point x="277" y="23"/>
      <point x="524" y="23" type="curve" smooth="yes"/>
      <point x="683" y="23"/>
      <point x="812" y="103"/>
      <point x="911" y="224" type="curve"/>
      <point x="943" y="198" type="line"/>
      <point x="842" y="62"/>
      <point x="691" y="-23"/>
    </contour>
  </outline>
</glyph>
<glyph name="mlonglegturned" format="2">
  <advance width="1774"/>
  <unicode hex="0270"/>
  <anchor x="969" y="0" name="m.uni0326"/>
  <anchor x="1178" y="1242" name="m.uni030F_1"/>
  <outline>
    <contour>
      <point x="1368" y="-418" type="line"/>
      <point x="1437" y="0" type="line"/>
      <point x="1483" y="0" type="line"/>
      <point x="1414" y="-418" type="line"/>
    </contour>
    <contour>
      <point x="1669" y="1118" type="line"/>
      <point x="1483" y="0" type="line"/>
      <point x="1437" y="0" type="line"/>
      <point x="1481" y="264" type="line"/>
      <point x="1497" y="262" type="line"/>
      <point x="1458" y="164"/>
      <point x="1330" y="41"/>
      <point x="1179" y="-16"/>
      <point x="1106" y="-16" type="qcurve" smooth="yes"/>
      <point x="1022" y="-16"/>
      <point x="898" y="55"/>
      <point x="830" y="189"/>
      <point x="831" y="282" type="qcurve"/>
      <point x="849" y="278" type="line"/>
      <point x="815" y="185"/>
      <point x="691" y="53"/>
      <point x="533" y="-16"/>
      <point x="446" y="-16" type="qcurve" smooth="yes"/>
      <point x="341" y="-16"/>
      <point x="202" y="78"/>
      <point x="147" y="252"/>
      <point x="167" y="370" type="qcurve" smooth="yes"/>
      <point x="291" y="1118" type="line"/>
      <point x="337" y="1118" type="line"/>
      <point x="212" y="366" type="line" smooth="yes"/>
      <point x="194" y="258"/>
      <point x="240" y="108"/>
      <point x="358" y="30"/>
      <point x="447" y="30" type="qcurve" smooth="yes"/>
      <point x="539" y="30"/>
      <point x="701" y="110"/>
      <point x="815" y="262"/>
      <point x="833" y="370" type="qcurve" smooth="yes"/>
      <point x="957" y="1118" type="line"/>
      <point x="1003" y="1118" type="line"/>
      <point x="878" y="366" type="line" smooth="yes"/>
      <point x="851" y="204"/>
      <point x="977" y="30"/>
      <point x="1107" y="30" type="qcurve" smooth="yes"/>
      <point x="1202" y="30"/>
      <point x="1368" y="118"/>
      <point x="1483" y="272"/>
      <point x="1499" y="370" type="qcurve" smooth="yes"/>
      <point x="1623" y="1118" type="line"/>
    </contour>
  </outline>
</glyph>
<glyph name="rsupmod" format="2">
  <advance width="500"/>
  <unicode hex="02B3"/>
  <outline>
    <contour>
      <point x="158" y="744" type="line"/>
      <point x="282" y="1490" type="line"/>
      <point x="326" y="1490" type="line"/>
      <point x="306" y="1370" type="line"/>
      <point x="312" y="1370" type="line"/>
      <point x="344" y="1429"/>
      <point x="477" y="1498"/>
      <point x="546" y="1498" type="qcurve" smooth="yes"/>
      <point x="573" y="1498"/>
      <point x="616" y="1490"/>
      <point x="632" y="1484" type="qcurve"/>
      <point x="610" y="1442" type="line"/>
      <point x="600" y="1447"/>
      <point x="565" y="1455"/>
      <point x="542" y="1454" type="qcurve"/>
      <point x="448" y="1455"/>
      <point x="300" y="1333"/>
      <point x="286" y="1240" type="qcurve"/>
      <point x="200" y="744" type="line"/>
    </contour>
  </outline>
</glyph>
<glyph name="ringhalfleftmod" format="2">
  <advance width="308"/>
  <unicode hex="02BF"/>
  <outline>
    <contour>
      <point x="376" y="1112" type="line"/>
      <point x="288" y="1111"/>
      <point x="190" y="1227"/>
      <point x="204" y="1310" type="qcurve" smooth="yes"/>
      <point x="218" y="1396"/>
      <point x="354" y="1510"/>
      <point x="442" y="1510" type="qcurve"/>
      <point x="434" y="1464" type="line"/>
      <point x="365" y="1463"/>
      <point x="261" y="1377"/>
      <point x="250" y="1310" type="qcurve" smooth="yes"/>
      <point x="240" y="1245"/>
      <point x="315" y="1158"/>
      <point x="384" y="1158" type="qcurve"/>
    </contour>
  </outline>
</glyph>
<glyph name="rhotichookmod" format="2">
  <advance width="552"/>
  <unicode hex="02DE"/>
  <outline>
    <contour>
      <point x="26" y="604" type="line"/>
      <point x="34" y="650" type="line"/>
      <point x="338" y="700" type="line"/>
      <point x="328" y="623"/>
      <point x="341" y="523"/>
      <point x="391" y="474"/>
      <point x="436" y="472" type="qcurve"/>
      <point x="454" y="472"/>
      <point x="488" y="478"/>
      <point x="504" y="482" type="qcurve"/>
      <point x="510" y="444" type="line"/>
      <point x="486" y="435"/>
      <point x="444" y="427"/>
      <point x="424" y="428" type="qcurve" smooth="yes"/>
      <point x="376" y="430"/>
      <point x="311" y="483"/>
      <point x="281" y="580"/>
      <point x="286" y="644" type="qcurve"/>
    </contour>
  </outline>
</glyph>
<glyph name="tildelowmod" format="2">
  <advance width="850"/>
  <unicode hex="02F7"/>
  <outline>
    <contour>
      <point x="572" y="-226" type="qcurve"/>
      <point x="616" y="-228" type="line"/>
      <point x="608" y="-298"/>
      <point x="549" y="-390"/>
      <point x="465" y="-436"/>
      <point x="418" y="-436" type="qcurve" smooth="yes"/>
      <point x="361" y="-436"/>
      <point x="292" y="-386"/>
      <point x="241" y="-322"/>
      <point x="183" y="-272"/>
      <point x="136" y="-272" type="qcurve" smooth="yes"/>
      <point x="75" y="-272"/>
      <point x="-8" y="-368"/>
      <point x="-16" y="-436" type="qcurve"/>
      <point x="-62" y="-434" type="line"/>
      <point x="-53" y="-364"/>
      <point x="6" y="-272"/>
      <point x="91" y="-226"/>
      <point x="138" y="-226" type="qcurve"/>
      <point x="195" y="-225"/>
      <point x="262" y="-275"/>
      <point x="312" y="-340"/>
      <point x="371" y="-390"/>
      <point x="418" y="-390" type="qcurve" smooth="yes"/>
      <point x="478" y="-390"/>
      <point x="564" y="-298"/>
    </contour>
  </outline>
</glyph>
<glyph name="dcomb" format="2">
  <unicode hex="0369"/>
  <anchor x="-378" y="2018" name="_t.uni0367_2"/>
  <outline>
    <contour>
      <point x="-208" y="1282" type="line"/>
      <point x="-90" y="1996" type="line"/>
      <point x="-46" y="1996" type="line"/>
      <point x="-176" y="1202" type="line"/>
      <point x="-210" y="1202" type="line"/>
    </contour>
    <contour>
      <point x="-420" y="1184" type="qcurve" smooth="yes"/>
      <point x="-482" y="1184"/>
      <point x="-572" y="1247"/>
      <point x="-612" y="1373"/>
      <point x="-600" y="1466" type="qcurve"/>
      <point x="-600" y="1478" type="line"/>
      <point x="-584" y="1606"/>
      <point x="-428" y="1760"/>
      <point x="-332" y="1760" type="qcurve" smooth="yes"/>
      <point x="-237" y="1760"/>
      <point x="-128" y="1621"/>
      <point x="-130" y="1496" type="qcurve"/>
      <point x="-142" y="1438" type="line"/>
      <point x="-166" y="1358"/>
      <point x="-252" y="1244"/>
      <point x="-360" y="1184"/>
    </contour>
    <contour>
      <point x="-416" y="1230" type="qcurve"/>
      <point x="-353" y="1231"/>
      <point x="-225" y="1325"/>
      <point x="-182" y="1410" type="qcurve"/>
      <point x="-160" y="1532" type="line"/>
      <point x="-174" y="1617"/>
      <point x="-267" y="1713"/>
      <point x="-336" y="1714" type="qcurve"/>
      <point x="-412" y="1713"/>
      <point x="-539" y="1584"/>
      <point x="-552" y="1478" type="qcurve"/>
      <point x="-554" y="1466" type="line"/>
      <point x="-570" y="1348"/>
      <point x="-486" y="1231"/>
    </contour>
  </outline>
</glyph>
<glyph name="rcomb" format="2">
  <unicode hex="036C"/>
  <outline>
    <contour>
      <point x="-386" y="1632" type="line"/>
      <point x="-456" y="1202" type="line"/>
      <point x="-504" y="1202" type="line"/>
      <point x="-412" y="1754" type="line"/>
      <point x="-378" y="1754" type="line"/>
    </contour>
    <contour>
      <point x="-184" y="1756" type="qcurve"/>
      <point x="-192" y="1710" type="line"/>
      <point x="-203" y="1712"/>
      <point x="-221" y="1713"/>
      <point x="-226" y="1714" type="qcurve"/>
      <point x="-291" y="1713"/>
      <point x="-396" y="1585"/>
      <point x="-412" y="1492" type="qcurve"/>
      <point x="-434" y="1492" type="line"/>
      <point x="-412" y="1624"/>
      <point x="-305" y="1760"/>
      <point x="-226" y="1760" type="qcurve" smooth="yes"/>
      <point x="-204" y="1760"/>
    </contour>
  </outline>
</glyph>
<glyph name="Phi" format="2">
  <advance width="1771"/>
  <unicode hex="03A6"/>
  <outline>
    <contour>
      <point x="798" y="74" type="line" smooth="yes"/>
      <point x="584" y="74"/>
      <point x="282" y="245"/>
      <point x="146" y="548"/>
      <point x="178" y="745" type="qcurve" smooth="yes"/>
      <point x="211" y="942"/>
      <point x="448" y="1245"/>
      <point x="806" y="1416"/>
      <point x="1020" y="1416" type="qcurve" smooth="yes"/>
      <point x="1034" y="1416" type="line" smooth="yes"/>
      <point x="1249" y="1416"/>
      <point x="1551" y="1245"/>
      <point x="1688" y="942"/>
      <point x="1655" y="745" type="qcurve" smooth="yes"/>
      <point x="1631" y="597"/>
      <point x="1483" y="351"/>
      <point x="1258" y="172"/>
      <point x="973" y="74"/>
      <point x="812" y="74" type="qcurve" smooth="yes"/>
    </contour>
    <contour>
      <point x="796" y="120" type="qcurve" smooth="yes"/>
      <point x="810" y="120" type="line" smooth="yes"/>
      <point x="1013" y="120"/>
      <point x="1353" y="280"/>
      <point x="1579" y="562"/>
      <point x="1609" y="745" type="qcurve" smooth="yes"/>
      <point x="1640" y="929"/>
      <point x="1517" y="1210"/>
      <point x="1240" y="1370"/>
      <point x="1037" y="1370" type="qcurve" smooth="yes"/>
      <point x="1023" y="1370" type="line" smooth="yes"/>
      <point x="821" y="1370"/>
      <point x="481" y="1210"/>
      <point x="255" y="929"/>
      <point x="224" y="745" type="qcurve" smooth="yes"/>
      <point x="194" y="562"/>
      <point x="317" y="280"/>
      <point x="594" y="120"/>
    </contour>
    <contour>
      <point x="762" y="-48" type="line"/>
      <point x="1025" y="1538" type="line"/>
      <point x="1071" y="1538" type="line"/>
      <point x="808" y="-48" type="line"/>
    </contour>
  </outline>
</glyph>
<glyph name="zeta" format="2">
  <advance width="1016"/>
  <unicode hex="03B6"/>
  <outline>
    <contour>
      <point x="705" y="-264" type="line"/>
      <point x="726" y="-140" type="line" smooth="yes"/>
      <point x="734" y="-94"/>
      <point x="708" y="-32"/>
      <point x="640" y="0"/>
      <point x="583" y="0" type="qcurve" smooth="yes"/>
      <point x="536" y="0" type="line" smooth="yes"/>
      <point x="391" y="0"/>
      <point x="175" y="58"/>
      <point x="71" y="201"/>
      <point x="92" y="327" type="qcurve" smooth="yes"/>
      <point x="111" y="437"/>
      <point x="245" y="656"/>
      <point x="455" y="898"/>
      <point x="588" y="1041" type="qcurve" smooth="yes"/>
      <point x="777" y="1244" type="line" smooth="yes"/>
      <point x="802" y="1271"/>
      <point x="854" y="1325"/>
      <point x="907" y="1380"/>
      <point x="961" y="1434"/>
      <point x="988" y="1461" type="qcurve"/>
      <point x="986" y="1448" type="line"/>
      <point x="951" y="1447"/>
      <point x="881" y="1446"/>
      <point x="811" y="1445"/>
      <point x="741" y="1444"/>
      <point x="706" y="1444" type="qcurve" smooth="yes"/>
      <point x="300" y="1444" type="line"/>
      <point x="308" y="1490" type="line"/>
      <point x="1021" y="1490" type="line"/>
      <point x="1011" y="1433" type="line"/>
      <point x="618" y="1011" type="line" smooth="yes"/>
      <point x="485" y="869"/>
      <point x="282" y="631"/>
      <point x="155" y="422"/>
      <point x="138" y="320" type="qcurve" smooth="yes"/>
      <point x="120" y="211"/>
      <point x="210" y="92"/>
      <point x="405" y="46"/>
      <point x="544" y="46" type="qcurve" smooth="yes"/>
      <point x="591" y="46" type="line" smooth="yes"/>
      <point x="693" y="46"/>
      <point x="787" y="-51"/>
      <point x="772" y="-140" type="qcurve" smooth="yes"/>
      <point x="751" y="-264" type="line"/>
    </contour>
  </outline>
</glyph>
<glyph name="betasymbol" format="2">
  <advance width="1160"/>
  <unicode hex="03D0"/>
  <outline>
    <contour>
      <point x="654" y="930" type="qcurve"/>
      <point x="777" y="931"/>
      <point x="942" y="813"/>
      <point x="1010" y="603"/>
      <point x="986" y="464" type="qcurve" smooth="yes"/>
      <point x="961" y="316"/>
      <point x="821" y="97"/>
      <point x="615" y="-23"/>
      <point x="490" y="-24" type="qcurve"/>
      <point x="365" y="-23"/>
      <point x="197" y="116"/>
      <point x="131" y="362"/>
      <point x="158" y="522" type="qcurve"/>
      <point x="174" y="626" type="line"/>
      <point x="222" y="907"/>
      <point x="402" y="1325"/>
      <point x="660" y="1556"/>
      <point x="824" y="1556" type="qcurve" smooth="yes"/>
      <point x="913" y="1556"/>
      <point x="1027" y="1489"/>
      <point x="1073" y="1375"/>
      <point x="1060" y="1302" type="qcurve" smooth="yes"/>
      <point x="1046" y="1223"/>
      <point x="946" y="1111"/>
      <point x="788" y="1054"/>
      <point x="684" y="1054" type="qcurve"/>
      <point x="590" y="1053"/>
      <point x="407" y="1102"/>
      <point x="332" y="1146" type="qcurve"/>
      <point x="354" y="1192" type="line"/>
      <point x="425" y="1146"/>
      <point x="591" y="1100"/>
      <point x="680" y="1100" type="qcurve" smooth="yes"/>
      <point x="821" y="1100"/>
      <point x="999" y="1214"/>
      <point x="1016" y="1318" type="qcurve" smooth="yes"/>
      <point x="1031" y="1410"/>
      <point x="929" y="1511"/>
      <point x="824" y="1510" type="qcurve" smooth="yes"/>
      <point x="710" y="1509"/>
      <point x="523" y="1385"/>
      <point x="375" y="1163"/>
      <point x="267" y="869"/>
      <point x="232" y="698" type="qcurve"/>
      <point x="305" y="807"/>
      <point x="524" y="931"/>
    </contour>
    <contour>
      <point x="654" y="884" type="qcurve" smooth="yes"/>
      <point x="548" y="884"/>
      <point x="354" y="786"/>
      <point x="220" y="622"/>
      <point x="204" y="522" type="qcurve" smooth="yes"/>
      <point x="166" y="294"/>
      <point x="326" y="23"/>
      <point x="498" y="24" type="qcurve"/>
      <point x="607" y="24"/>
      <point x="792" y="135"/>
      <point x="919" y="334"/>
      <point x="940" y="464" type="qcurve" smooth="yes"/>
      <point x="971" y="658"/>
      <point x="818" y="884"/>
    </contour>
  </outline>
</glyph>
<glyph name="phigreek" format="2">
  <advance width="1230"/>
  <unicode hex="03D5"/>
  <outline>
    <contour>
      <point x="496" y="-24" type="line" smooth="yes"/>
      <point x="365" y="-24"/>
      <point x="181" y="129"/>
      <point x="103" y="391"/>
      <point x="130" y="556" type="qcurve" smooth="yes"/>
      <point x="157" y="720"/>
      <point x="322" y="982"/>
      <point x="557" y="1134"/>
      <point x="688" y="1134" type="qcurve" smooth="yes"/>
      <point x="734" y="1134" type="line" smooth="yes"/>
      <point x="865" y="1134"/>
      <point x="1049" y="982"/>
      <point x="1127" y="720"/>
      <point x="1100" y="556" type="qcurve" smooth="yes"/>
      <point x="1073" y="391"/>
      <point x="908" y="129"/>
      <point x="674" y="-24"/>
      <point x="542" y="-24" type="qcurve" smooth="yes"/>
    </contour>
    <contour>
      <point x="504" y="22" type="qcurve" smooth="yes"/>
      <point x="550" y="22" type="line" smooth="yes"/>
      <point x="669" y="22"/>
      <point x="880" y="166"/>
      <point x="1029" y="412"/>
      <point x="1054" y="564" type="qcurve" smooth="yes"/>
      <point x="1079" y="715"/>
      <point x="1009" y="952"/>
      <point x="844" y="1088"/>
      <point x="726" y="1088" type="qcurve" smooth="yes"/>
      <point x="680" y="1088" type="line" smooth="yes"/>
      <point x="562" y="1088"/>
      <point x="351" y="944"/>
      <point x="201" y="699"/>
      <point x="176" y="548" type="qcurve" smooth="yes"/>
      <point x="151" y="396"/>
      <point x="220" y="158"/>
      <point x="386" y="22"/>
    </contour>
    <contour>
      <point x="431" y="-418" type="line"/>
      <point x="747" y="1490" type="line"/>
      <point x="793" y="1490" type="line"/>
      <point x="477" y="-418" type="line"/>
    </contour>
  </outline>
</glyph>
<glyph name="pisymbol" format="2">
  <advance width="1414"/>
  <unicode hex="03D6"/>
  <anchor x="965" y="0" name="m.uni0326"/>
  <anchor x="1185" y="1304" name="m.uni030F_1"/>
  <outline>
    <contour>
      <point x="1418" y="1118" type="line"/>
      <point x="1410" y="1070" type="line"/>
      <point x="176" y="1070" type="line"/>
      <point x="184" y="1118" type="line"/>
    </contour>
    <contour>
      <point x="280" y="1118" type="qcurve"/>
      <point x="332" y="1118" type="line"/>
      <point x="270" y="1040"/>
      <point x="176" y="864"/>
      <point x="113" y="673"/>
      <point x="96" y="572" type="qcurve" smooth="yes"/>
      <point x="53" y="320"/>
      <point x="182" y="26"/>
      <point x="322" y="26" type="qcurve" smooth="yes"/>
      <point x="446" y="26"/>
      <point x="635" y="256"/>
      <point x="666" y="448" type="qcurve"/>
      <point x="712" y="722" type="line"/>
      <point x="758" y="722" type="line"/>
      <point x="722" y="506" type="line" smooth="yes"/>
      <point x="694" y="337"/>
      <point x="580" y="102"/>
      <point x="417" y="-20"/>
      <point x="314" y="-20" type="qcurve" smooth="yes"/>
      <point x="146" y="-20"/>
      <point x="3" y="299"/>
      <point x="48" y="568" type="qcurve" smooth="yes"/>
      <point x="75" y="731"/>
      <point x="192" y="1006"/>
    </contour>
    <contour>
      <point x="1268" y="1118" type="qcurve"/>
      <point x="1320" y="1118" type="line"/>
      <point x="1372" y="1006"/>
      <point x="1396" y="731"/>
      <point x="1368" y="568" type="qcurve"/>
      <point x="1340" y="389"/>
      <point x="1208" y="124"/>
      <point x="1021" y="-20"/>
      <point x="908" y="-20" type="qcurve" smooth="yes"/>
      <point x="807" y="-20"/>
      <point x="684" y="102"/>
      <point x="647" y="337"/>
      <point x="674" y="506" type="qcurve"/>
      <point x="712" y="722" type="line"/>
      <point x="758" y="722" type="line"/>
      <point x="712" y="448" type="line"/>
      <point x="681" y="256"/>
      <point x="793" y="26"/>
      <point x="918" y="26" type="qcurve" smooth="yes"/>
      <point x="1011" y="26"/>
      <point x="1176" y="159"/>
      <point x="1297" y="404"/>
      <point x="1324" y="572" type="qcurve" smooth="yes"/>
      <point x="1340" y="673"/>
      <point x="1340" y="864"/>
      <point x="1305" y="1040"/>
    </contour>
  </outline>
</glyph>
<glyph name="Decyr" format="2">
  <advance width="1660"/>
  <unicode hex="0414"/>
  <outline>
    <contour>
      <point x="-18" y="-320" type="line"/>
      <point x="43" y="46" type="line"/>
      <point x="151" y="46" type="line"/>
      <point x="203" y="101"/>
      <point x="295" y="238"/>
      <point x="378" y="418"/>
      <point x="456" y="653"/>
      <point x="494" y="806" type="qcurve" smooth="yes"/>
      <point x="664" y="1490" type="line"/>
      <point x="1498" y="1490" type="line"/>
      <point x="1259" y="46" type="line"/>
      <point x="1447" y="46" type="line"/>
      <point x="1386" y="-320" type="line"/>
      <point x="1340" y="-320" type="line"/>
      <point x="1393" y="0" type="line"/>
      <point x="83" y="0" type="line"/>
      <point x="30" y="-320" type="line"/>
    </contour>
    <contour>
      <point x="209" y="46" type="qcurve"/>
      <point x="1213" y="46" type="line"/>
      <point x="1444" y="1444" type="line"/>
      <point x="698" y="1444" type="line"/>
      <point x="540" y="806" type="line" smooth="yes"/>
      <point x="494" y="620"/>
      <point x="397" y="343"/>
      <point x="283" y="133"/>
    </contour>
  </outline>
</glyph>
<glyph name="pecyr" format="2">
  <advance width="1177"/>
  <unicode hex="043F"/>
  <outline>
    <contour>
      <point x="1071" y="1118" type="line"/>
      <point x="886" y="0" type="line"/>
      <point x="840" y="0" type="line"/>
      <point x="1017" y="1072" type="line"/>
      <point x="329" y="1072" type="line"/>
      <point x="152" y="0" type="line"/>
      <point x="106" y="0" type="line"/>
      <point x="291" y="1118" type="line"/>
    </contour>
  </outline>
</glyph>
<glyph name="izhitsacyr" format="2">
  <advance width="1258"/>
  <unicode hex="0475"/>
  <anchor x="788" y="1242" name="m.uni030F_1"/>
  <outline>
    <contour>
      <point x="409" y="0" type="line"/>
      <point x="193" y="1118" type="line"/>
      <point x="242" y="1118" type="line"/>
      <point x="446" y="58" type="line"/>
      <point x="452" y="58" type="line"/>
      <point x="907" y="933" type="line" smooth="yes"/>
      <point x="957" y="1028"/>
      <point x="1100" y="1118"/>
      <point x="1200" y="1118" type="qcurve" smooth="yes"/>
      <point x="1251" y="1118" type="line"/>
      <point x="1243" y="1072" type="line"/>
      <point x="1191" y="1072" type="line" smooth="yes"/>
      <point x="1109" y="1072"/>
      <point x="991" y="997"/>
      <point x="950" y="919" type="qcurve" smooth="yes"/>
      <point x="470" y="0" type="line"/>
    </contour>
  </outline>
</glyph>
<glyph name="ertickcyr" format="2">
  <advance width="1244"/>
  <unicode hex="048F"/>
  <anchor x="213" y="-401" name="m.uni0326"/>
  <anchor x="772" y="1242" name="m.uni030F_1"/>
  <outline>
    <contour>
      <point x="718" y="258" type="line"/>
      <point x="956" y="-14" type="line"/>
      <point x="924" y="-48" type="line"/>
      <point x="686" y="226" type="line"/>
    </contour>
    <contour>
      <point x="28" y="-418" type="line"/>
      <point x="283" y="1118" type="line"/>
      <point x="329" y="1118" type="line"/>
      <point x="281" y="832" type="line"/>
      <point x="286" y="832" type="line"/>
      <point x="330" y="925"/>
      <point x="463" y="1061"/>
      <point x="626" y="1134"/>
      <point x="714" y="1134" type="qcurve" smooth="yes"/>
      <point x="826" y="1134"/>
      <point x="982" y="1022"/>
      <point x="1064" y="826"/>
      <point x="1064" y="698" type="qcurve" smooth="yes"/>
      <point x="1064" y="574"/>
      <point x="991" y="319"/>
      <point x="852" y="106"/>
      <point x="654" y="-24"/>
      <point x="529" y="-24" type="qcurve" smooth="yes"/>
      <point x="438" y="-24"/>
      <point x="298" y="50"/>
      <point x="210" y="187"/>
      <point x="196" y="280" type="qcurve"/>
      <point x="190" y="280" type="line"/>
      <point x="74" y="-418" type="line"/>
    </contour>
    <contour>
      <point x="530" y="22" type="qcurve" smooth="yes"/>
      <point x="644" y="22"/>
      <point x="824" y="144"/>
      <point x="951" y="343"/>
      <point x="1018" y="581"/>
      <point x="1018" y="697" type="qcurve" smooth="yes"/>
      <point x="1018" y="870"/>
      <point x="860" y="1088"/>
      <point x="713" y="1088" type="qcurve" smooth="yes"/>
      <point x="599" y="1088"/>
      <point x="418" y="967"/>
      <point x="290" y="768"/>
      <point x="223" y="530"/>
      <point x="223" y="414" type="qcurve" smooth="yes"/>
      <point x="223" y="242"/>
      <point x="382" y="22"/>
    </contour>
  </outline>
</glyph>
<glyph name="zmod" format="2">
  <advance width="704"/>
  <unicode hex="1DBB"/>
  <outline>
    <contour>
      <point x="130" y="744" type="line"/>
      <point x="140" y="786" type="line"/>
      <point x="686" y="1440" type="line"/>
      <point x="686" y="1446" type="line"/>
      <point x="274" y="1446" type="line"/>
      <point x="282" y="1490" type="line"/>
      <point x="754" y="1490" type="line"/>
      <point x="744" y="1448" type="line"/>
      <point x="200" y="794" type="line"/>
      <point x="200" y="788" type="line"/>
      <point x="654" y="788" type="line"/>
      <point x="648" y="744" type="line"/>
    </contour>
  </outline>
</glyph>
<glyph name="snakebelowcomb" format="2">
  <unicode hex="1DC2"/>
  <outline>
    <contour>
      <point x="-806" y="-160" type="line"/>
      <point x="-753" y="-134"/>
      <point x="-662" y="-108"/>
      <point x="-618" y="-108" type="qcurve" smooth="yes"/>
      <point x="-562" y="-108"/>
      <point x="-521" y="-158"/>
      <point x="-526" y="-188" type="qcurve" smooth="yes"/>
      <point x="-532" y="-225"/>
      <point x="-590" y="-264"/>
      <point x="-659" y="-284"/>
      <point x="-712" y="-297"/>
      <point x="-714" y="-308" type="qcurve"/>
      <point x="-716" y="-317"/>
      <point x="-663" y="-330"/>
      <point x="-593" y="-345"/>
      <point x="-542" y="-374"/>
      <point x="-546" y="-400" type="qcurve" smooth="yes"/>
      <point x="-551" y="-431"/>
      <point x="-612" y="-458"/>
      <point x="-688" y="-467"/>
      <point x="-746" y="-474"/>
      <point x="-748" y="-486" type="qcurve" smooth="yes"/>
      <point x="-750" y="-499"/>
      <point x="-639" y="-508"/>
      <point x="-572" y="-510" type="qcurve"/>
      <point x="-590" y="-556" type="line"/>
      <point x="-643" y="-554"/>
      <point x="-738" y="-540"/>
      <point x="-794" y="-508"/>
      <point x="-790" y="-480" type="qcurve"/>
      <point x="-785" y="-452"/>
      <point x="-726" y="-430"/>
      <point x="-653" y="-424"/>
      <point x="-597" y="-415"/>
      <point x="-594" y="-400" type="qcurve" smooth="yes"/>
      <point x="-592" y="-389"/>
      <point x="-644" y="-375"/>
      <point x="-714" y="-357"/>
      <point x="-764" y="-329"/>
      <point x="-760" y="-306" type="qcurve"/>
      <point x="-757" y="-283"/>
      <point x="-701" y="-260"/>
      <point x="-631" y="-241"/>
      <point x="-575" y="-213"/>
      <point x="-572" y="-186" type="qcurve" smooth="yes"/>
      <point x="-570" y="-169"/>
      <point x="-599" y="-154"/>
      <point x="-634" y="-154" type="qcurve" smooth="yes"/>
      <point x="-664" y="-154"/>
      <point x="-739" y="-175"/>
      <point x="-790" y="-198" type="qcurve"/>
    </contour>
  </outline>
</glyph>
<glyph name="brevemacroncomb" format="2">
  <unicode hex="1DCB"/>
  <outline>
    <contour>
      <point x="194" y="1332" type="line"/>
      <point x="-474" y="1332" type="line"/>
      <point x="-511" y="1280"/>
      <point x="-625" y="1225"/>
      <point x="-692" y="1224" type="qcurve" smooth="yes"/>
      <point x="-795" y="1223"/>
      <point x="-898" y="1345"/>
      <point x="-884" y="1460" type="qcurve"/>
      <point x="-838" y="1460" type="line"/>
      <point x="-848" y="1358"/>
      <point x="-778" y="1271"/>
      <point x="-696" y="1272" type="qcurve"/>
      <point x="-628" y="1272"/>
      <point x="-529" y="1326"/>
      <point x="-498" y="1378" type="qcurve"/>
      <point x="202" y="1378" type="line"/>
    </contour>
  </outline>
</glyph>
<glyph name="aaboveflatcomb" format="2">
  <unicode hex="1DD3"/>
  <outline>
    <contour>
      <point x="-408" y="1346" type="qcurve"/>
      <point x="-360" y="1346" type="line"/>
      <point x="-373" y="1289"/>
      <point x="-472" y="1196"/>
      <point x="-540" y="1196" type="qcurve" smooth="yes"/>
      <point x="-582" y="1196"/>
      <point x="-641" y="1235"/>
      <point x="-666" y="1303"/>
      <point x="-658" y="1346" type="qcurve"/>
      <point x="-610" y="1346" type="line"/>
      <point x="-620" y="1300"/>
      <point x="-576" y="1242"/>
      <point x="-530" y="1242" type="qcurve" smooth="yes"/>
      <point x="-483" y="1242"/>
      <point x="-417" y="1300"/>
    </contour>
    <contour>
      <point x="-158" y="1346" type="qcurve"/>
      <point x="-110" y="1346" type="line"/>
      <point x="-123" y="1282"/>
      <point x="-220" y="1196"/>
      <point x="-282" y="1196" type="qcurve" smooth="yes"/>
      <point x="-328" y="1196"/>
      <point x="-390" y="1241"/>
      <point x="-415" y="1310"/>
      <point x="-408" y="1346" type="qcurve"/>
      <point x="-360" y="1346" type="line"/>
      <point x="-370" y="1300"/>
      <point x="-325" y="1242"/>
      <point x="-280" y="1242" type="qcurve" smooth="yes"/>
      <point x="-233" y="1242"/>
      <point x="-167" y="1300"/>
    </contour>
  </outline>
</glyph>
<glyph name="aocomb" format="2">
  <unicode hex="1DD5"/>
  <outline>
    <contour>
      <point x="-408" y="1458" type="line"/>
      <point x="-392" y="1556" type="line" smooth="yes"/>
      <point x="-378" y="1638"/>
      <point x="-425" y="1711"/>
      <point x="-488" y="1710" type="qcurve"/>
      <point x="-552" y="1711"/>
      <point x="-649" y="1641"/>
      <point x="-660" y="1588" type="qcurve"/>
      <point x="-702" y="1607" type="line"/>
      <point x="-686" y="1668"/>
      <point x="-629" y="1711" type="qcurve" smooth="yes"/>
      <point x="-567" y="1757"/>
      <point x="-488" y="1758" type="qcurve"/>
      <point x="-405" y="1757"/>
      <point x="-326" y="1653"/>
      <point x="-342" y="1568" type="qcurve"/>
      <point x="-362" y="1454" type="line"/>
    </contour>
    <contour>
      <point x="-392" y="1496" type="line"/>
      <point x="-400" y="1448" type="line"/>
      <point x="-568" y="1448" type="line"/>
      <point x="-633" y="1449"/>
      <point x="-712" y="1396"/>
      <point x="-722" y="1348" type="qcurve" smooth="yes"/>
      <point x="-732" y="1298"/>
      <point x="-679" y="1242"/>
      <point x="-624" y="1242" type="qcurve" smooth="yes"/>
      <point x="-568" y="1242"/>
      <point x="-443" y="1303"/>
      <point x="-392" y="1352" type="qcurve"/>
      <point x="-384" y="1320" type="line"/>
      <point x="-439" y="1261"/>
      <point x="-568" y="1196"/>
      <point x="-630" y="1196" type="qcurve" smooth="yes"/>
      <point x="-704" y="1196"/>
      <point x="-778" y="1286"/>
      <point x="-768" y="1350" type="qcurve" smooth="yes"/>
      <point x="-757" y="1420"/>
      <point x="-650" y="1495"/>
      <point x="-562" y="1496" type="qcurve"/>
    </contour>
    <contour>
      <point x="-200" y="1186" type="qcurve"/>
      <point x="-265" y="1187"/>
      <point x="-365" y="1261"/>
      <point x="-415" y="1388"/>
      <point x="-406" y="1466" type="qcurve"/>
      <point x="-404" y="1478" type="line"/>
      <point x="-389" y="1603"/>
      <point x="-236" y="1760"/>
      <point x="-140" y="1760" type="qcurve" smooth="yes"/>
      <point x="-73" y="1760"/>
      <point x="29" y="1686"/>
      <point x="80" y="1559"/>
      <point x="70" y="1478" type="qcurve"/>
      <point x="68" y="1466" type="line"/>
      <point x="53" y="1342"/>
      <point x="-101" y="1187"/>
    </contour>
    <contour>
      <point x="-200" y="1234" type="qcurve"/>
      <point x="-147" y="1234"/>
      <point x="-51" y="1294"/>
      <point x="16" y="1399"/>
      <point x="22" y="1464" type="qcurve"/>
      <point x="24" y="1480" type="line"/>
      <point x="34" y="1585"/>
      <point x="-59" y="1713"/>
      <point x="-136" y="1714" type="qcurve"/>
      <point x="-216" y="1713"/>
      <point x="-348" y="1580"/>
      <point x="-358" y="1480" type="qcurve" smooth="yes"/>
      <point x="-360" y="1464" type="line"/>
      <point x="-370" y="1362"/>
      <point x="-277" y="1233"/>
    </contour>
  </outline>
</glyph>
<glyph name="gcomb" format="2">
  <unicode hex="1DDA"/>
  <outline>
    <contour>
      <point x="-446" y="978" type="qcurve"/>
      <point x="-519" y="977"/>
      <point x="-632" y="1037"/>
      <point x="-670" y="1096" type="qcurve"/>
      <point x="-638" y="1128" type="line"/>
      <point x="-598" y="1074"/>
      <point x="-506" y="1024"/>
      <point x="-446" y="1024" type="qcurve" smooth="yes"/>
      <point x="-360" y="1024"/>
      <point x="-247" y="1112"/>
      <point x="-234" y="1188" type="qcurve" smooth="yes"/>
      <point x="-162" y="1626" type="line"/>
      <point x="-128" y="1752" type="line"/>
      <point x="-98" y="1752" type="line"/>
      <point x="-186" y="1198" type="line" smooth="yes"/>
      <point x="-197" y="1131"/>
      <point x="-268" y="1032"/>
      <point x="-377" y="978"/>
    </contour>
    <contour>
      <point x="-424" y="1186" type="qcurve"/>
      <point x="-523" y="1187"/>
      <point x="-627" y="1348"/>
      <point x="-606" y="1466" type="qcurve"/>
      <point x="-602" y="1482" type="line"/>
      <point x="-587" y="1567"/>
      <point x="-507" y="1691"/>
      <point x="-394" y="1760"/>
      <point x="-328" y="1760" type="qcurve" smooth="yes"/>
      <point x="-265" y="1760"/>
      <point x="-182" y="1695"/>
      <point x="-146" y="1581"/>
      <point x="-156" y="1506" type="qcurve"/>
      <point x="-168" y="1440" type="line" smooth="yes"/>
      <point x="-183" y="1364"/>
      <point x="-256" y="1250"/>
      <point x="-361" y="1187"/>
    </contour>
    <contour>
      <point x="-410" y="1234" type="qcurve"/>
      <point x="-348" y="1233"/>
      <point x="-238" y="1309"/>
      <point x="-194" y="1382" type="qcurve"/>
      <point x="-164" y="1566" type="line"/>
      <point x="-183" y="1633"/>
      <point x="-275" y="1713"/>
      <point x="-334" y="1714" type="qcurve"/>
      <point x="-411" y="1713"/>
      <point x="-541" y="1580"/>
      <point x="-556" y="1484" type="qcurve"/>
      <point x="-558" y="1464" type="line"/>
      <point x="-574" y="1359"/>
      <point x="-494" y="1233"/>
    </contour>
  </outline>
</glyph>
<glyph name="Rcomb" format="2">
  <unicode hex="1DE2"/>
  <outline>
    <contour>
      <point x="-326" y="1466" type="qcurve"/>
      <point x="-562" y="1466" type="line"/>
      <point x="-554" y="1512" type="line"/>
      <point x="-358" y="1512" type="line"/>
      <point x="-299" y="1513"/>
      <point x="-212" y="1584"/>
      <point x="-202" y="1640" type="qcurve" smooth="yes"/>
      <point x="-191" y="1704"/>
      <point x="-247" y="1751"/>
      <point x="-332" y="1752" type="qcurve"/>
      <point x="-502" y="1752" type="line"/>
      <point x="-594" y="1202" type="line"/>
      <point x="-640" y="1202" type="line"/>
      <point x="-542" y="1798" type="line"/>
      <point x="-310" y="1798" type="line" smooth="yes"/>
      <point x="-227" y="1798"/>
      <point x="-142" y="1721"/>
      <point x="-156" y="1640" type="qcurve" smooth="yes"/>
      <point x="-165" y="1587"/>
      <point x="-245" y="1505"/>
      <point x="-302" y="1492" type="qcurve"/>
      <point x="-315" y="1490"/>
      <point x="-302" y="1468"/>
      <point x="-290" y="1470" type="qcurve"/>
      <point x="-319" y="1466"/>
      <point x="-328" y="1465"/>
    </contour>
    <contour>
      <point x="-370" y="1466" type="qcurve"/>
      <point x="-364" y="1498" type="line"/>
      <point x="-298" y="1505"/>
      <point x="-222" y="1477"/>
      <point x="-196" y="1405"/>
      <point x="-206" y="1344" type="qcurve" smooth="yes"/>
      <point x="-212" y="1310" type="line" smooth="yes"/>
      <point x="-216" y="1285"/>
      <point x="-217" y="1249"/>
      <point x="-212" y="1224"/>
      <point x="-206" y="1214" type="qcurve"/>
      <point x="-206" y="1202" type="line"/>
      <point x="-248" y="1202" type="line"/>
      <point x="-261" y="1216"/>
      <point x="-265" y="1268"/>
      <point x="-258" y="1310" type="qcurve"/>
      <point x="-254" y="1344" type="line"/>
      <point x="-240" y="1417"/>
      <point x="-287" y="1465"/>
    </contour>
  </outline>
</glyph>
<glyph name="adiaeresiscomb" format="2">
  <unicode hex="1DF2"/>
  <outline>
    <contour>
      <point x="-396" y="1886" type="qcurve"/>
      <point x="-392" y="1903"/>
      <point x="-363" y="1927"/>
      <point x="-346" y="1928" type="qcurve"/>
      <point x="-324" y="1927"/>
      <point x="-299" y="1897"/>
      <point x="-302" y="1874" type="qcurve" smooth="yes"/>
      <point x="-304" y="1860"/>
      <point x="-335" y="1834"/>
      <point x="-352" y="1834" type="qcurve" smooth="yes"/>
      <point x="-374" y="1834"/>
      <point x="-400" y="1864"/>
    </contour>
    <contour>
      <point x="-210" y="1886" type="qcurve"/>
      <point x="-208" y="1902"/>
      <point x="-179" y="1927"/>
      <point x="-162" y="1928" type="qcurve"/>
      <point x="-139" y="1927"/>
      <point x="-113" y="1896"/>
      <point x="-118" y="1874" type="qcurve" smooth="yes"/>
      <point x="-122" y="1858"/>
      <point x="-150" y="1834"/>
      <point x="-168" y="1834" type="qcurve" smooth="yes"/>
      <point x="-189" y="1834"/>
      <point x="-215" y="1867"/>
    </contour>
    <contour>
      <point x="-222" y="1294" type="qcurve" smooth="yes"/>
      <point x="-178" y="1556" type="line"/>
      <point x="-165" y="1638"/>
      <point x="-212" y="1711"/>
      <point x="-274" y="1710" type="qcurve"/>
      <point x="-339" y="1711"/>
      <point x="-437" y="1641"/>
      <point x="-448" y="1588" type="qcurve"/>
      <point x="-490" y="1607" type="line"/>
      <point x="-474" y="1668"/>
      <point x="-416" y="1711" type="qcurve" smooth="yes"/>
      <point x="-354" y="1757"/>
      <point x="-274" y="1758" type="qcurve"/>
      <point x="-191" y="1757"/>
      <point x="-116" y="1653"/>
      <point x="-130" y="1568" type="qcurve" smooth="yes"/>
      <point x="-170" y="1326" type="line" smooth="yes"/>
      <point x="-175" y="1297"/>
      <point x="-178" y="1230"/>
      <point x="-176" y="1202" type="qcurve"/>
      <point x="-226" y="1202" type="line"/>
      <point x="-227" y="1231"/>
      <point x="-226" y="1271"/>
    </contour>
    <contour>
      <point x="-180" y="1496" type="line"/>
      <point x="-188" y="1448" type="line"/>
      <point x="-356" y="1448" type="line"/>
      <point x="-420" y="1449"/>
      <point x="-500" y="1396"/>
      <point x="-510" y="1348" type="qcurve"/>
      <point x="-519" y="1298"/>
      <point x="-466" y="1242"/>
      <point x="-412" y="1242" type="qcurve" smooth="yes"/>
      <point x="-374" y="1242"/>
      <point x="-295" y="1268"/>
      <point x="-227" y="1312"/>
      <point x="-208" y="1338" type="qcurve"/>
      <point x="-210" y="1300" type="line"/>
      <point x="-242" y="1256"/>
      <point x="-362" y="1196"/>
      <point x="-420" y="1196" type="qcurve" smooth="yes"/>
      <point x="-492" y="1196"/>
      <point x="-566" y="1286"/>
      <point x="-556" y="1350" type="qcurve" smooth="yes"/>
      <point x="-545" y="1420"/>
      <point x="-438" y="1495"/>
      <point x="-350" y="1496" type="qcurve"/>
    </contour>
  </outline>
</glyph>
<glyph name="udiaeresiscomb" format="2">
  <unicode hex="1DF4"/>
  <outline>
    <contour>
      <point x="-454" y="1886" type="qcurve"/>
      <point x="-450" y="1903"/>
      <point x="-422" y="1927"/>
      <point x="-404" y="1928" type="qcurve"/>
      <point x="-382" y="1927"/>
      <point x="-357" y="1897"/>
      <point x="-360" y="1874" type="qcurve"/>
      <point x="-363" y="1860"/>
      <point x="-393" y="1834"/>
      <point x="-410" y="1834" type="qcurve" smooth="yes"/>
      <point x="-432" y="1834"/>
      <point x="-458" y="1864"/>
    </contour>
    <contour>
      <point x="-270" y="1886" type="qcurve"/>
      <point x="-266" y="1902"/>
      <point x="-237" y="1927"/>
      <point x="-220" y="1928" type="qcurve"/>
      <point x="-198" y="1927"/>
      <point x="-171" y="1896"/>
      <point x="-176" y="1874" type="qcurve" smooth="yes"/>
      <point x="-180" y="1858"/>
      <point x="-208" y="1834"/>
      <point x="-226" y="1834" type="qcurve" smooth="yes"/>
      <point x="-248" y="1834"/>
      <point x="-274" y="1867"/>
    </contour>
    <contour>
      <point x="-244" y="1324" type="line"/>
      <point x="-174" y="1754" type="line"/>
      <point x="-126" y="1754" type="line"/>
      <point x="-218" y="1202" type="line"/>
      <point x="-252" y="1202" type="line"/>
    </contour>
    <contour>
      <point x="-222" y="1464" type="qcurve"/>
      <point x="-192" y="1466" type="line"/>
      <point x="-212" y="1342"/>
      <point x="-352" y="1193"/>
      <point x="-450" y="1192" type="qcurve"/>
      <point x="-547" y="1193"/>
      <point x="-613" y="1312"/>
      <point x="-592" y="1438" type="qcurve" smooth="yes"/>
      <point x="-540" y="1754" type="line"/>
      <point x="-494" y="1754" type="line"/>
      <point x="-546" y="1434" type="line"/>
      <point x="-565" y="1325"/>
      <point x="-519" y="1239"/>
      <point x="-436" y="1240" type="qcurve"/>
      <point x="-353" y="1239"/>
      <point x="-238" y="1358"/>
    </contour>
  </outline>
</glyph>
<glyph name="yloop" format="2">
  <advance width="1254"/>
  <unicode hex="1EFF"/>
  <outline>
    <contour>
      <point x="356" y="1118" type="line"/>
      <point x="546" y="88" type="line"/>
      <point x="586" y="-120" type="line"/>
      <point x="538" y="-120" type="line"/>
      <point x="306" y="1118" type="line"/>
    </contour>
    <contour>
      <point x="262" y="-390" type="qcurve" smooth="yes"/>
      <point x="321" y="-389"/>
      <point x="429" y="-329"/>
      <point x="505" y="-228"/>
      <point x="514" y="-168" type="qcurve" smooth="yes"/>
      <point x="528" y="-76"/>
      <point x="425" y="49"/>
      <point x="334" y="50" type="qcurve"/>
      <point x="273" y="50"/>
      <point x="162" y="-11"/>
      <point x="85" y="-109"/>
      <point x="76" y="-168" type="qcurve" smooth="yes"/>
      <point x="60" y="-264"/>
      <point x="167" y="-391"/>
    </contour>
    <contour>
      <point x="254" y="-436" type="qcurve" smooth="yes"/>
      <point x="180" y="-436"/>
      <point x="70" y="-362"/>
      <point x="17" y="-240"/>
      <point x="30" y="-168" type="qcurve"/>
      <point x="42" y="-93"/>
      <point x="131" y="26"/>
      <point x="261" y="96"/>
      <point x="334" y="96" type="qcurve" smooth="yes"/>
      <point x="407" y="96"/>
      <point x="518" y="21"/>
      <point x="574" y="-99"/>
      <point x="562" y="-168" type="qcurve"/>
      <point x="542" y="-168" type="line"/>
      <point x="546" y="-136" type="line"/>
      <point x="1168" y="1118" type="line"/>
      <point x="1218" y="1118" type="line"/>
      <point x="532" y="-264" type="line" smooth="yes"/>
      <point x="506" y="-316"/>
      <point x="419" y="-394"/>
      <point x="312" y="-436"/>
    </contour>
  </outline>
</glyph>
<glyph name="lenistilde" format="2">
  <advance width="555"/>
  <unicode hex="1FCF"/>
  <outline>
    <contour>
      <point x="332" y="1272" type="qcurve" smooth="yes"/>
      <point x="316" y="1272" type="line"/>
      <point x="323" y="1318" type="line"/>
      <point x="339" y="1318" type="line" smooth="yes"/>
      <point x="398" y="1318"/>
      <point x="480" y="1378"/>
      <point x="488" y="1424" type="qcurve" smooth="yes"/>
      <point x="496" y="1471"/>
      <point x="431" y="1519"/>
      <point x="372" y="1519" type="qcurve" smooth="yes"/>
      <point x="324" y="1519" type="line"/>
      <point x="332" y="1565" type="line"/>
      <point x="380" y="1565" type="line" smooth="yes"/>
      <point x="458" y="1565"/>
      <point x="545" y="1492"/>
      <point x="534" y="1424" type="qcurve" smooth="yes"/>
      <point x="523" y="1357"/>
      <point x="410" y="1272"/>
    </contour>
    <contour>
      <point x="592" y="1678" type="qcurve" smooth="yes"/>
      <point x="550" y="1678"/>
      <point x="494" y="1714"/>
      <point x="449" y="1760"/>
      <point x="401" y="1796"/>
      <point x="366" y="1796" type="qcurve" smooth="yes"/>
      <point x="317" y="1796"/>
      <point x="245" y="1737"/>
      <point x="232" y="1685" type="qcurve"/>
      <point x="186" y="1685" type="line"/>
      <point x="203" y="1753"/>
      <point x="302" y="1842"/>
      <point x="366" y="1842" type="qcurve" smooth="yes"/>
      <point x="413" y="1842"/>
      <point x="472" y="1806"/>
      <point x="516" y="1760"/>
      <point x="560" y="1724"/>
      <point x="591" y="1724" type="qcurve" smooth="yes"/>
      <point x="634" y="1724"/>
      <point x="697" y="1774"/>
      <point x="719" y="1831" type="qcurve"/>
      <point x="766" y="1831" type="line"/>
      <point x="742" y="1760"/>
      <point x="649" y="1678"/>
    </contour>
  </outline>
</glyph>
<glyph name="asper" format="2">
  <advance width="384"/>
  <unicode hex="1FFE"/>
  <outline>
    <contour>
      <point x="375" y="1272" type="line" smooth="yes"/>
      <point x="297" y="1272"/>
      <point x="212" y="1357"/>
      <point x="223" y="1424" type="qcurve" smooth="yes"/>
      <point x="234" y="1492"/>
      <point x="345" y="1565"/>
      <point x="423" y="1565" type="qcurve" smooth="yes"/>
      <point x="471" y="1565" type="line"/>
      <point x="463" y="1519" type="line"/>
      <point x="415" y="1519" type="line" smooth="yes"/>
      <point x="357" y="1519"/>
      <point x="277" y="1471"/>
      <point x="269" y="1424" type="qcurve" smooth="yes"/>
      <point x="261" y="1378"/>
      <point x="324" y="1318"/>
      <point x="382" y="1318" type="qcurve" smooth="yes"/>
      <point x="398" y="1318" type="line"/>
      <point x="391" y="1272" type="line"/>
    </contour>
  </outline>
</glyph>
<glyph name="pertenthousandsign" format="2">
  <advance width="2884"/>
  <unicode hex="2031"/>
  <outline>
    <contour>
      <point x="287" y="1168" type="qcurve" smooth="yes"/>
      <point x="295" y="1214" type="line" smooth="yes"/>
      <point x="310" y="1302"/>
      <point x="396" y="1433"/>
      <point x="519" y="1506"/>
      <point x="588" y="1506" type="qcurve" smooth="yes"/>
      <point x="657" y="1506"/>
      <point x="755" y="1433"/>
      <point x="799" y="1302"/>
      <point x="784" y="1214" type="qcurve" smooth="yes"/>
      <point x="776" y="1168" type="line" smooth="yes"/>
      <point x="762" y="1082"/>
      <point x="675" y="951"/>
      <point x="553" y="878"/>
      <point x="484" y="878" type="qcurve" smooth="yes"/>
      <point x="415" y="878"/>
      <point x="316" y="951"/>
      <point x="273" y="1082"/>
    </contour>
    <contour>
      <point x="341" y="1214" type="qcurve" smooth="yes"/>
      <point x="333" y="1168" type="line" smooth="yes"/>
      <point x="315" y="1057"/>
      <point x="408" y="924"/>
      <point x="492" y="924" type="qcurve" smooth="yes"/>
      <point x="575" y="924"/>
      <point x="712" y="1057"/>
      <point x="730" y="1168" type="qcurve" smooth="yes"/>
      <point x="738" y="1214" type="line" smooth="yes"/>
      <point x="757" y="1326"/>
      <point x="664" y="1460"/>
      <point x="581" y="1460" type="qcurve" smooth="yes"/>
      <point x="497" y="1460"/>
      <point x="360" y="1326"/>
    </contour>
    <contour>
      <point x="997" y="274" type="qcurve" smooth="yes"/>
      <point x="1005" y="320" type="line" smooth="yes"/>
      <point x="1020" y="408"/>
      <point x="1106" y="539"/>
      <point x="1229" y="612"/>
      <point x="1298" y="612" type="qcurve" smooth="yes"/>
      <point x="1367" y="612"/>
      <point x="1465" y="539"/>
      <point x="1509" y="408"/>
      <point x="1494" y="320" type="qcurve" smooth="yes"/>
      <point x="1486" y="274" type="line" smooth="yes"/>
      <point x="1472" y="188"/>
      <point x="1385" y="57"/>
      <point x="1263" y="-16"/>
      <point x="1194" y="-16" type="qcurve" smooth="yes"/>
      <point x="1125" y="-16"/>
      <point x="1026" y="57"/>
      <point x="983" y="188"/>
    </contour>
    <contour>
      <point x="1051" y="320" type="qcurve" smooth="yes"/>
      <point x="1043" y="274" type="line" smooth="yes"/>
      <point x="1025" y="163"/>
      <point x="1118" y="30"/>
      <point x="1202" y="30" type="qcurve" smooth="yes"/>
      <point x="1285" y="30"/>
      <point x="1422" y="163"/>
      <point x="1440" y="274" type="qcurve" smooth="yes"/>
      <point x="1448" y="320" type="line" smooth="yes"/>
      <point x="1467" y="432"/>
      <point x="1374" y="566"/>
      <point x="1291" y="566" type="qcurve" smooth="yes"/>
      <point x="1207" y="566"/>
      <point x="1070" y="432"/>
    </contour>
    <contour>
      <point x="1579" y="274" type="qcurve" smooth="yes"/>
      <point x="1587" y="320" type="line" smooth="yes"/>
      <point x="1602" y="408"/>
      <point x="1688" y="539"/>
      <point x="1811" y="612"/>
      <point x="1880" y="612" type="qcurve" smooth="yes"/>
      <point x="1949" y="612"/>
      <point x="2047" y="539"/>
      <point x="2091" y="408"/>
      <point x="2076" y="320" type="qcurve" smooth="yes"/>
      <point x="2068" y="274" type="line" smooth="yes"/>
      <point x="2054" y="188"/>
      <point x="1967" y="57"/>
      <point x="1845" y="-16"/>
      <point x="1776" y="-16" type="qcurve" smooth="yes"/>
      <point x="1707" y="-16"/>
      <point x="1608" y="57"/>
      <point x="1565" y="188"/>
    </contour>
    <contour>
      <point x="1633" y="320" type="qcurve" smooth="yes"/>
      <point x="1625" y="274" type="line" smooth="yes"/>
      <point x="1607" y="163"/>
      <point x="1700" y="30"/>
      <point x="1784" y="30" type="qcurve" smooth="yes"/>
      <point x="1867" y="30"/>
      <point x="2004" y="163"/>
      <point x="2022" y="274" type="qcurve" smooth="yes"/>
      <point x="2030" y="320" type="line" smooth="yes"/>
      <point x="2049" y="432"/>
      <point x="1956" y="566"/>
      <point x="1873" y="566" type="qcurve" smooth="yes"/>
      <point x="1789" y="566"/>
      <point x="1652" y="432"/>
    </contour>
    <contour>
      <point x="2161" y="274" type="qcurve" smooth="yes"/>
      <point x="2169" y="320" type="line" smooth="yes"/>
      <point x="2184" y="408"/>
      <point x="2270" y="539"/>
      <point x="2393" y="612"/>
      <point x="2462" y="612" type="qcurve" smooth="yes"/>
      <point x="2531" y="612"/>
      <point x="2629" y="539"/>
      <point x="2673" y="408"/>
      <point x="2658" y="320" type="qcurve" smooth="yes"/>
      <point x="2650" y="274" type="line" smooth="yes"/>
      <point x="2636" y="188"/>
      <point x="2549" y="57"/>
      <point x="2427" y="-16"/>
      <point x="2358" y="-16" type="qcurve" smooth="yes"/>
      <point x="2289" y="-16"/>
      <point x="2190" y="57"/>
      <point x="2147" y="188"/>
    </contour>
    <contour>
      <point x="2215" y="320" type="qcurve" smooth="yes"/>
      <point x="2207" y="274" type="line" smooth="yes"/>
      <point x="2189" y="163"/>
      <point x="2282" y="30"/>
      <point x="2366" y="30" type="qcurve" smooth="yes"/>
      <point x="2449" y="30"/>
      <point x="2586" y="163"/>
      <point x="2604" y="274" type="qcurve" smooth="yes"/>
      <point x="2612" y="320" type="line" smooth="yes"/>
      <point x="2631" y="432"/>
      <point x="2538" y="566"/>
      <point x="2455" y="566" type="qcurve" smooth="yes"/>
      <point x="2371" y="566"/>
      <point x="2234" y="432"/>
    </contour>
    <contour>
      <point x="229" y="0" type="line"/>
      <point x="1496" y="1490" type="line"/>
      <point x="1552" y="1490" type="line"/>
      <point x="283" y="0" type="line"/>
    </contour>
  </outline>
</glyph>
<glyph name="undertie" format="2">
  <advance width="1584"/>
  <unicode hex="203F"/>
  <outline>
    <contour>
      <point x="638" y="-478" type="qcurve"/>
      <point x="491" y="-477"/>
      <point x="250" y="-413"/>
      <point x="58" y="-278"/>
      <point x="-18" y="-172" type="qcurve"/>
      <point x="22" y="-154" type="line"/>
      <point x="126" y="-291"/>
      <point x="421" y="-429"/>
      <point x="630" y="-430" type="qcurve" smooth="yes"/>
      <point x="770" y="-431"/>
      <point x="1012" y="-369"/>
      <point x="1228" y="-245"/>
      <point x="1328" y="-154" type="qcurve"/>
      <point x="1362" y="-172" type="line"/>
      <point x="1246" y="-284"/>
      <point x="1018" y="-419"/>
      <point x="776" y="-478"/>
    </contour>
  </outline>
</glyph>
<glyph name="bracketleftsquarequill" format="2">
  <advance width="646"/>
  <unicode hex="2045"/>
  <outline>
    <contour>
      <point x="507" y="674" type="line"/>
      <point x="499" y="628" type="line"/>
      <point x="290" y="628" type="line"/>
      <point x="298" y="674" type="line"/>
    </contour>
    <contour>
      <point x="117" y="-280" type="line"/>
      <point x="425" y="1582" type="line"/>
      <point x="657" y="1582" type="line"/>
      <point x="650" y="1536" type="line"/>
      <point x="464" y="1536" type="line"/>
      <point x="171" y="-234" type="line"/>
      <point x="357" y="-234" type="line"/>
      <point x="349" y="-280" type="line"/>
    </contour>
  </outline>
</glyph>
<glyph name="dottedcross" format="2">
  <advance width="1118"/>
  <unicode hex="205C"/>
  <outline>
    <contour>
      <point x="-4" y="536" type="line"/>
      <point x="4" y="582" type="line"/>
      <point x="1122" y="582" type="line"/>
      <point x="1112" y="536" type="line"/>
    </contour>
    <contour>
      <point x="442" y="0" type="line"/>
      <point x="628" y="1118" type="line"/>
      <point x="674" y="1118" type="line"/>
      <point x="488" y="0" type="line"/>
    </contour>
    <contour>
      <point x="850" y="146" type="qcurve"/>
      <point x="829" y="145"/>
      <point x="804" y="176"/>
      <point x="808" y="198" type="qcurve"/>
      <point x="811" y="220"/>
      <point x="846" y="250"/>
      <point x="868" y="250" type="qcurve" smooth="yes"/>
      <point x="890" y="250"/>
      <point x="915" y="220"/>
      <point x="912" y="198" type="qcurve" smooth="yes"/>
      <point x="909" y="176"/>
      <point x="873" y="145"/>
    </contour>
    <contour>
      <point x="130" y="146" type="qcurve"/>
      <point x="108" y="145"/>
      <point x="82" y="176"/>
      <point x="86" y="198" type="qcurve"/>
      <point x="89" y="220"/>
      <point x="125" y="250"/>
      <point x="146" y="250" type="qcurve" smooth="yes"/>
      <point x="169" y="250"/>
      <point x="194" y="220"/>
      <point x="190" y="198" type="qcurve"/>
      <point x="187" y="176"/>
      <point x="152" y="145"/>
    </contour>
    <contour>
      <point x="248" y="866" type="qcurve"/>
      <point x="227" y="867"/>
      <point x="202" y="898"/>
      <point x="206" y="920" type="qcurve"/>
      <point x="208" y="941"/>
      <point x="244" y="972"/>
      <point x="266" y="972" type="qcurve" smooth="yes"/>
      <point x="288" y="972"/>
      <point x="313" y="941"/>
      <point x="310" y="920" type="qcurve"/>
      <point x="306" y="898"/>
      <point x="271" y="867"/>
    </contour>
    <contour>
      <point x="970" y="866" type="qcurve"/>
      <point x="948" y="867"/>
      <point x="923" y="898"/>
      <point x="926" y="920" type="qcurve"/>
      <point x="930" y="941"/>
      <point x="966" y="972"/>
      <point x="988" y="972" type="qcurve" smooth="yes"/>
      <point x="1010" y="972"/>
      <point x="1035" y="941"/>
      <point x="1032" y="920" type="qcurve"/>
      <point x="1028" y="898"/>
      <point x="992" y="867"/>
    </contour>
  </outline>
</glyph>
<glyph name="zero.superior" format="2">
  <advance width="838"/>
  <unicode hex="2070"/>
  <anchor x="531" y="1606" name="m.uni030F_1"/>
  <outline>
    <contour>
      <point x="478" y="906" type="qcurve" smooth="yes"/>
      <point x="333" y="906"/>
      <point x="207" y="1113"/>
      <point x="238" y="1299" type="qcurve" smooth="yes"/>
      <point x="259" y="1423"/>
      <point x="360" y="1600"/>
      <point x="511" y="1694"/>
      <point x="608" y="1694" type="qcurve" smooth="yes"/>
      <point x="751" y="1694"/>
      <point x="877" y="1485"/>
      <point x="846" y="1299" type="qcurve" smooth="yes"/>
      <point x="826" y="1176"/>
      <point x="725" y="1000"/>
      <point x="574" y="906"/>
    </contour>
    <contour>
      <point x="485" y="950" type="qcurve" smooth="yes"/>
      <point x="605" y="950"/>
      <point x="771" y="1134"/>
      <point x="798" y="1299" type="qcurve" smooth="yes"/>
      <point x="826" y="1465"/>
      <point x="721" y="1649"/>
      <point x="601" y="1649" type="qcurve" smooth="yes"/>
      <point x="480" y="1649"/>
      <point x="314" y="1465"/>
      <point x="286" y="1299" type="qcurve" smooth="yes"/>
      <point x="259" y="1134"/>
      <point x="364" y="950"/>
    </contour>
  </outline>
</glyph>
<glyph name="nine.superior" format="2">
  <advance width="799"/>
  <unicode hex="2079"/>
  <outline>
    <contour>
      <point x="587" y="1694" type="qcurve" smooth="yes"/>
      <point x="667" y="1694"/>
      <point x="785" y="1629"/>
      <point x="844" y="1519"/>
      <point x="832" y="1450" type="qcurve" smooth="yes"/>
      <point x="824" y="1402"/>
      <point x="771" y="1313"/>
      <point x="724" y="1269" type="qcurve" smooth="yes"/>
      <point x="347" y="916" type="line"/>
      <point x="286" y="916" type="line"/>
      <point x="669" y="1270" type="line"/>
      <point x="664" y="1270" type="line"/>
      <point x="654" y="1257"/>
      <point x="607" y="1232"/>
      <point x="543" y="1216"/>
      <point x="505" y="1216" type="qcurve" smooth="yes"/>
      <point x="386" y="1216"/>
      <point x="246" y="1351"/>
      <point x="263" y="1453" type="qcurve" smooth="yes"/>
      <point x="274" y="1521"/>
      <point x="368" y="1630"/>
      <point x="508" y="1694"/>
    </contour>
    <contour>
      <point x="580" y="1650" type="qcurve" smooth="yes"/>
      <point x="515" y="1650"/>
      <point x="398" y="1597"/>
      <point x="319" y="1508"/>
      <point x="310" y="1453" type="qcurve" smooth="yes"/>
      <point x="296" y="1370"/>
      <point x="416" y="1256"/>
      <point x="515" y="1256" type="qcurve" smooth="yes"/>
      <point x="582" y="1256"/>
      <point x="698" y="1308"/>
      <point x="776" y="1397"/>
      <point x="785" y="1452" type="qcurve" smooth="yes"/>
      <point x="799" y="1535"/>
      <point x="679" y="1650"/>
    </contour>
  </outline>
</glyph>
<glyph name="Euro" format="2">
  <advance width="1400"/>
  <unicode hex="20AC"/>
  <outline>
    <contour>
      <point x="1096" y="930" type="line"/>
      <point x="1068" y="884" type="line"/>
      <point x="126" y="884" type="line"/>
      <point x="154" y="930" type="line"/>
    </contour>
    <contour>
      <point x="894" y="606" type="line"/>
      <point x="862" y="558" type="line"/>
      <point x="70" y="558" type="line"/>
      <point x="102" y="606" type="line"/>
    </contour>
    <contour>
      <point x="1362" y="1350" type="qcurve"/>
      <point x="1336" y="1306" type="line"/>
      <point x="1295" y="1357"/>
      <point x="1193" y="1427"/>
      <point x="1072" y="1464"/>
      <point x="1000" y="1464" type="qcurve" smooth="yes"/>
      <point x="835" y="1464"/>
      <point x="547" y="1280"/>
      <point x="347" y="956"/>
      <point x="312" y="744" type="qcurve" smooth="yes"/>
      <point x="277" y="534"/>
      <point x="362" y="210"/>
      <point x="582" y="26"/>
      <point x="748" y="26" type="qcurve" smooth="yes"/>
      <point x="818" y="26"/>
      <point x="955" y="62"/>
      <point x="1084" y="131"/>
      <point x="1140" y="180" type="qcurve"/>
      <point x="1154" y="134" type="line"/>
      <point x="1068" y="60"/>
      <point x="861" y="-20"/>
      <point x="748" y="-20" type="qcurve" smooth="yes"/>
      <point x="569" y="-20"/>
      <point x="326" y="176"/>
      <point x="227" y="521"/>
      <point x="264" y="744" type="qcurve" smooth="yes"/>
      <point x="301" y="969"/>
      <point x="514" y="1314"/>
      <point x="822" y="1510"/>
      <point x="1000" y="1510" type="qcurve" smooth="yes"/>
      <point x="1116" y="1510"/>
      <point x="1298" y="1427"/>
    </contour>
  </outline>
</glyph>
<glyph name="germanpenny" format="2">
  <advance width="938"/>
  <unicode hex="20B0"/>
  <outline>
    <contour>
      <point x="-76" y="0" type="line"/>
      <point x="220" y="468" type="line"/>
      <point x="414" y="94" type="line"/>
      <point x="654" y="494" type="line" smooth="yes"/>
      <point x="723" y="608"/>
      <point x="837" y="824"/>
      <point x="922" y="1017"/>
      <point x="976" y="1178"/>
      <point x="986" y="1238" type="qcurve" smooth="yes"/>
      <point x="1006" y="1357"/>
      <point x="923" y="1487"/>
      <point x="830" y="1488" type="qcurve" smooth="yes"/>
      <point x="736" y="1489"/>
      <point x="602" y="1359"/>
      <point x="580" y="1242" type="qcurve"/>
      <point x="570" y="1182"/>
      <point x="574" y="1020"/>
      <point x="590" y="924" type="qcurve"/>
      <point x="744" y="-40" type="line"/>
      <point x="750" y="-70"/>
      <point x="754" y="-126"/>
      <point x="753" y="-179"/>
      <point x="750" y="-204" type="qcurve"/>
      <point x="732" y="-316"/>
      <point x="583" y="-436"/>
      <point x="458" y="-436" type="qcurve" smooth="yes"/>
      <point x="410" y="-436"/>
      <point x="323" y="-419"/>
      <point x="282" y="-402" type="qcurve"/>
      <point x="290" y="-354" type="line"/>
      <point x="325" y="-372"/>
      <point x="416" y="-390"/>
      <point x="464" y="-390" type="qcurve" smooth="yes"/>
      <point x="568" y="-390"/>
      <point x="689" y="-290"/>
      <point x="704" y="-202" type="qcurve" smooth="yes"/>
      <point x="709" y="-171"/>
      <point x="709" y="-103"/>
      <point x="702" y="-66" type="qcurve"/>
      <point x="544" y="914" type="line" smooth="yes"/>
      <point x="534" y="979"/>
      <point x="525" y="1097"/>
      <point x="529" y="1203"/>
      <point x="536" y="1248" type="qcurve"/>
      <point x="553" y="1337"/>
      <point x="635" y="1465"/>
      <point x="756" y="1535"/>
      <point x="830" y="1534" type="qcurve"/>
      <point x="907" y="1535"/>
      <point x="1007" y="1459"/>
      <point x="1047" y="1323"/>
      <point x="1032" y="1232" type="qcurve" smooth="yes"/>
      <point x="1018" y="1145"/>
      <point x="932" y="916"/>
      <point x="781" y="618"/>
      <point x="558" y="238"/>
      <point x="408" y="0" type="qcurve"/>
      <point x="216" y="374" type="line"/>
      <point x="-20" y="0" type="line"/>
    </contour>
  </outline>
</glyph>
<glyph name="spesmilo" format="2">
  <advance width="1118"/>
  <unicode hex="20B7"/>
  <outline>
    <contour>
      <point x="46" y="210" type="qcurve"/>
      <point x="12" y="204" type="line"/>
      <point x="33" y="344"/>
      <point x="164" y="500"/>
      <point x="258" y="500" type="qcurve" smooth="yes"/>
      <point x="344" y="500"/>
      <point x="416" y="380"/>
      <point x="398" y="268" type="qcurve" smooth="yes"/>
      <point x="334" y="-120" type="line"/>
      <point x="286" y="-120" type="line"/>
      <point x="350" y="268" type="line" smooth="yes"/>
      <point x="365" y="358"/>
      <point x="313" y="454"/>
      <point x="248" y="454" type="qcurve" smooth="yes"/>
      <point x="170" y="454"/>
      <point x="65" y="326"/>
    </contour>
    <contour>
      <point x="72" y="358" type="line"/>
      <point x="-8" y="-120" type="line"/>
      <point x="-54" y="-120" type="line"/>
      <point x="46" y="488" type="line"/>
      <point x="78" y="488" type="line"/>
    </contour>
    <contour>
      <point x="386" y="210" type="qcurve"/>
      <point x="352" y="204" type="line"/>
      <point x="373" y="344"/>
      <point x="505" y="500"/>
      <point x="600" y="500" type="qcurve" smooth="yes"/>
      <point x="685" y="500"/>
      <point x="756" y="380"/>
      <point x="738" y="268" type="qcurve" smooth="yes"/>
      <point x="674" y="-120" type="line"/>
      <point x="626" y="-120" type="line"/>
      <point x="690" y="268" type="line"/>
      <point x="706" y="358"/>
      <point x="653" y="454"/>
      <point x="588" y="454" type="qcurve" smooth="yes"/>
      <point x="510" y="454"/>
      <point x="406" y="326"/>
    </contour>
    <contour>
      <point x="958" y="330" type="qcurve"/>
      <point x="976" y="416"/>
      <point x="935" y="544"/>
      <point x="781" y="650"/>
      <point x="626" y="702" type="qcurve" smooth="yes"/>
      <point x="468" y="755"/>
      <point x="286" y="887"/>
      <point x="219" y="1037"/>
      <point x="232" y="1118" type="qcurve"/>
      <point x="250" y="1221"/>
      <point x="390" y="1387"/>
      <point x="602" y="1484"/>
      <point x="728" y="1484" type="qcurve" smooth="yes"/>
      <point x="856" y="1484"/>
      <point x="1034" y="1380"/>
      <point x="1120" y="1190"/>
      <point x="1108" y="1060" type="qcurve"/>
      <point x="1062" y="1060" type="line"/>
      <point x="1076" y="1238"/>
      <point x="900" y="1437"/>
      <point x="730" y="1438" type="qcurve"/>
      <point x="617" y="1438"/>
      <point x="423" y="1350"/>
      <point x="295" y="1204"/>
      <point x="280" y="1114" type="qcurve" smooth="yes"/>
      <point x="268" y="1043"/>
      <point x="324" y="914"/>
      <point x="493" y="797"/>
      <point x="648" y="744" type="qcurve" smooth="yes"/>
      <point x="806" y="689"/>
      <point x="973" y="573"/>
      <point x="1023" y="425"/>
      <point x="1004" y="322" type="qcurve" smooth="yes"/>
      <point x="986" y="223"/>
      <point x="845" y="67"/>
      <point x="624" y="-23"/>
      <point x="486" y="-24" type="qcurve"/>
      <point x="410" y="-24"/>
      <point x="266" y="9"/>
      <point x="140" y="72"/>
      <point x="39" y="161"/>
      <point x="4" y="218" type="qcurve"/>
      <point x="48" y="218" type="line"/>
      <point x="99" y="154"/>
      <point x="236" y="67"/>
      <point x="398" y="24"/>
      <point x="486" y="24" type="qcurve" smooth="yes"/>
      <point x="612" y="24"/>
      <point x="813" y="103"/>
      <point x="941" y="242"/>
    </contour>
  </outline>
</glyph>
<glyph name="arrowboth" format="2">
  <advance width="2746"/>
  <unicode hex="2194"/>
  <outline>
    <contour>
      <point x="761" y="0" type="line"/>
      <point x="217" y="652" type="line"/>
      <point x="977" y="1304" type="line"/>
      <point x="1006" y="1272" type="line"/>
      <point x="483" y="824" type="line" smooth="yes"/>
      <point x="459" y="803"/>
      <point x="407" y="762"/>
      <point x="354" y="720"/>
      <point x="301" y="679"/>
      <point x="275" y="659" type="qcurve"/>
      <point x="277" y="668" type="line"/>
      <point x="307" y="670"/>
      <point x="372" y="673"/>
      <point x="437" y="675"/>
      <point x="467" y="675" type="qcurve" smooth="yes"/>
      <point x="2317" y="675" type="line" smooth="yes"/>
      <point x="2347" y="675"/>
      <point x="2411" y="673"/>
      <point x="2475" y="670"/>
      <point x="2505" y="668" type="qcurve"/>
      <point x="2503" y="659" type="line"/>
      <point x="2478" y="686"/>
      <point x="2424" y="741"/>
      <point x="2372" y="797"/>
      <point x="2349" y="824" type="qcurve" smooth="yes"/>
      <point x="1976" y="1272" type="line"/>
      <point x="2015" y="1304" type="line"/>
      <point x="2559" y="652" type="line"/>
      <point x="1799" y="0" type="line"/>
      <point x="1771" y="34" type="line"/>
      <point x="2292" y="479" type="line" smooth="yes"/>
      <point x="2316" y="500"/>
      <point x="2369" y="541"/>
      <point x="2422" y="582"/>
      <point x="2475" y="623"/>
      <point x="2500" y="643" type="qcurve"/>
      <point x="2499" y="634" type="line"/>
      <point x="2469" y="632"/>
      <point x="2404" y="630"/>
      <point x="2339" y="629"/>
      <point x="2309" y="629" type="qcurve" smooth="yes"/>
      <point x="459" y="629" type="line" smooth="yes"/>
      <point x="429" y="629"/>
      <point x="365" y="630"/>
      <point x="301" y="632"/>
      <point x="271" y="634" type="qcurve"/>
      <point x="272" y="643" type="line"/>
      <point x="291" y="623"/>
      <point x="331" y="582"/>
      <point x="371" y="541"/>
      <point x="409" y="500"/>
      <point x="426" y="479" type="qcurve" smooth="yes"/>
      <point x="801" y="34" type="line"/>
    </contour>
  </outline>
</glyph>
<glyph name="arrowSE" format="2">
  <advance width="1525"/>
  <unicode hex="2198"/>
  <outline>
    <contour>
      <point x="1345" y="922" type="line"/>
      <point x="1192" y="0" type="line"/>
      <point x="270" y="0" type="line"/>
      <point x="278" y="46" type="line"/>
      <point x="911" y="46" type="line" smooth="yes"/>
      <point x="950" y="46"/>
      <point x="1031" y="43"/>
      <point x="1114" y="38"/>
      <point x="1153" y="35" type="qcurve"/>
      <point x="1145" y="29" type="line"/>
      <point x="1126" y="49"/>
      <point x="1085" y="92"/>
      <point x="1046" y="137"/>
      <point x="1028" y="158" type="qcurve" smooth="yes"/>
      <point x="290" y="1042" type="line"/>
      <point x="328" y="1074" type="line"/>
      <point x="1065" y="190" type="line" smooth="yes"/>
      <point x="1083" y="169"/>
      <point x="1121" y="122"/>
      <point x="1157" y="76"/>
      <point x="1173" y="53" type="qcurve"/>
      <point x="1166" y="47" type="line"/>
      <point x="1169" y="77"/>
      <point x="1175" y="138"/>
      <point x="1182" y="200"/>
      <point x="1189" y="262"/>
      <point x="1194" y="291" type="qcurve" smooth="yes"/>
      <point x="1299" y="922" type="line"/>
    </contour>
  </outline>
</glyph>
<glyph name="partialdiff" format="2">
  <advance width="1202"/>
  <unicode hex="2202"/>
  <outline>
    <contour>
      <point x="676" y="1004" type="qcurve" smooth="yes"/>
      <point x="795" y="1004"/>
      <point x="971" y="893"/>
      <point x="1024" y="784" type="qcurve"/>
      <point x="1053" y="1014"/>
      <point x="997" y="1315"/>
      <point x="826" y="1464"/>
      <point x="680" y="1464" type="qcurve"/>
      <point x="619" y="1463"/>
      <point x="492" y="1436"/>
      <point x="412" y="1406" type="qcurve"/>
      <point x="418" y="1452" type="line"/>
      <point x="495" y="1482"/>
      <point x="623" y="1510"/>
      <point x="686" y="1510" type="qcurve" smooth="yes"/>
      <point x="855" y="1510"/>
      <point x="1050" y="1322"/>
      <point x="1102" y="951"/>
      <point x="1056" y="676" type="qcurve" smooth="yes"/>
      <point x="1052" y="650" type="line" smooth="yes"/>
      <point x="1015" y="430"/>
      <point x="867" y="130"/>
      <point x="649" y="-23"/>
      <point x="506" y="-24" type="qcurve"/>
      <point x="379" y="-23"/>
      <point x="206" y="110"/>
      <point x="134" y="346"/>
      <point x="158" y="500" type="qcurve"/>
      <point x="160" y="520" type="line"/>
      <point x="182" y="664"/>
      <point x="327" y="882"/>
      <point x="545" y="1004"/>
    </contour>
    <contour>
      <point x="674" y="958" type="qcurve" smooth="yes"/>
      <point x="554" y="958"/>
      <point x="358" y="846"/>
      <point x="227" y="642"/>
      <point x="204" y="504" type="qcurve"/>
      <point x="200" y="486" type="line"/>
      <point x="180" y="347"/>
      <point x="244" y="138"/>
      <point x="398" y="24"/>
      <point x="512" y="24" type="qcurve" smooth="yes"/>
      <point x="637" y="24"/>
      <point x="835" y="166"/>
      <point x="971" y="441"/>
      <point x="1004" y="638" type="qcurve" smooth="yes"/>
      <point x="1016" y="706" type="line"/>
      <point x="980" y="793"/>
      <point x="882" y="904"/>
      <point x="755" y="958"/>
    </contour>
  </outline>
</glyph>
<glyph name="projective" format="2">
  <advance width="1630"/>
  <unicode hex="2305"/>
  <outline>
    <contour>
      <point x="366" y="1442" type="line"/>
      <point x="372" y="1490" type="line"/>
      <point x="1560" y="1490" type="line"/>
      <point x="1552" y="1442" type="line"/>
    </contour>
    <contour>
      <point x="240" y="500" type="line"/>
      <point x="210" y="536" type="line"/>
      <point x="906" y="1132" type="line"/>
      <point x="1408" y="528" type="line"/>
      <point x="1374" y="500" type="line"/>
      <point x="900" y="1066" type="line"/>
    </contour>
  </outline>
</glyph>
<glyph name="insertion" format="2">
  <advance width="1630"/>
  <unicode hex="2380"/>
  <outline>
    <contour>
      <point x="718" y="-24" type="line"/>
      <point x="124" y="690" type="line"/>
      <point x="160" y="720" type="line"/>
      <point x="724" y="42" type="line"/>
      <point x="1518" y="726" type="line"/>
      <point x="1550" y="690" type="line"/>
    </contour>
    <contour>
      <point x="742" y="544" type="qcurve" smooth="yes"/>
      <point x="685" y="544"/>
      <point x="587" y="591"/>
      <point x="535" y="687"/>
      <point x="546" y="760" type="qcurve" smooth="yes"/>
      <point x="555" y="817"/>
      <point x="621" y="902"/>
      <point x="756" y="959"/>
      <point x="866" y="972" type="qcurve" smooth="yes"/>
      <point x="920" y="978"/>
      <point x="1012" y="991"/>
      <point x="1072" y="1021"/>
      <point x="1076" y="1050" type="qcurve" smooth="yes"/>
      <point x="1082" y="1088" type="line" smooth="yes"/>
      <point x="1095" y="1171"/>
      <point x="1009" y="1271"/>
      <point x="912" y="1272" type="qcurve"/>
      <point x="834" y="1271"/>
      <point x="707" y="1200"/>
      <point x="674" y="1144" type="qcurve"/>
      <point x="634" y="1158" type="line"/>
      <point x="675" y="1235"/>
      <point x="833" y="1315"/>
      <point x="916" y="1316" type="qcurve"/>
      <point x="987" y="1316"/>
      <point x="1089" y="1261"/>
      <point x="1137" y="1159"/>
      <point x="1126" y="1086" type="qcurve"/>
      <point x="1038" y="558" type="line"/>
      <point x="994" y="558" type="line"/>
      <point x="1018" y="702" type="line"/>
      <point x="1014" y="702" type="line"/>
      <point x="971" y="632"/>
      <point x="827" y="544"/>
    </contour>
    <contour>
      <point x="744" y="584" type="qcurve"/>
      <point x="816" y="585"/>
      <point x="942" y="658"/>
      <point x="1030" y="786"/>
      <point x="1044" y="868" type="qcurve" smooth="yes"/>
      <point x="1064" y="980" type="line"/>
      <point x="1040" y="965"/>
      <point x="978" y="946"/>
      <point x="906" y="936"/>
      <point x="866" y="932" type="qcurve"/>
      <point x="738" y="916"/>
      <point x="603" y="833"/>
      <point x="592" y="768" type="qcurve" smooth="yes"/>
      <point x="577" y="677"/>
      <point x="670" y="585"/>
    </contour>
  </outline>
</glyph>
<glyph name="warning" format="2">
  <advance width="2066"/>
  <unicode hex="26A0"/>
  <outline>
    <contour>
      <point x="-46" y="0" type="line"/>
      <point x="1218" y="1676" type="line"/>
      <point x="1926" y="0" type="line"/>
    </contour>
    <contour>
      <point x="982" y="248" type="qcurve"/>
      <point x="1013" y="249"/>
      <point x="1061" y="291"/>
      <point x="1066" y="322" type="qcurve" smooth="yes"/>
      <point x="1071" y="352"/>
      <point x="1036" y="394"/>
      <point x="1006" y="394" type="qcurve" smooth="yes"/>
      <point x="975" y="394"/>
      <point x="926" y="352"/>
      <point x="920" y="322" type="qcurve"/>
      <point x="915" y="291"/>
      <point x="951" y="249"/>
    </contour>
    <contour>
      <point x="994" y="584" type="line"/>
      <point x="1080" y="584" type="line"/>
      <point x="1170" y="1118" type="line"/>
      <point x="1082" y="1118" type="line"/>
    </contour>
  </outline>
</glyph>
<glyph name="I.1" format="2">
  <advance width="769"/>
  <unicode hex="E00C"/>
  <anchor x="501" y="0" name="m.uni0326"/>
  <anchor x="748" y="1490" name="m.uni030F_1"/>
  <anchor x="1034" y="0" name="m.uni0328_4"/>
  <outline>
    <contour>
      <point x="28" y="0" type="line"/>
      <point x="36" y="46" type="line"/>
      <point x="276" y="46" type="line"/>
      <point x="507" y="1444" type="line"/>
      <point x="267" y="1444" type="line"/>
      <point x="275" y="1490" type="line"/>
      <point x="803" y="1490" type="line"/>
      <point x="795" y="1444" type="line"/>
      <point x="553" y="1444" type="line"/>
      <point x="322" y="46" type="line"/>
      <point x="564" y="46" type="line"/>
      <point x="556" y="0" type="line"/>
    </contour>
  </outline>
</glyph>
<glyph name="one.tf.ss01" format="2">
  <advance width="1328"/>
  <unicode hex="E072"/>
  <unicode hex="E07C"/>
  <outline>
    <contour>
      <point x="163" y="0" type="line"/>
      <point x="171" y="46" type="line"/>
      <point x="988" y="46" type="line"/>
      <point x="980" y="0" type="line"/>
    </contour>
    <contour>
      <point x="565" y="0" type="line"/>
      <point x="791" y="1361" type="line"/>
      <point x="793" y="1359" type="line"/>
      <point x="727" y="1277"/>
      <point x="619" y="1228"/>
      <point x="460" y="1208" type="curve" smooth="yes"/>
      <point x="407" y="1201"/>
      <point x="380" y="1200"/>
      <point x="335" y="1198" type="curve"/>
      <point x="343" y="1244" type="line"/>
      <point x="385" y="1245"/>
      <point x="413" y="1249"/>
      <point x="455" y="1252" type="curve" smooth="yes"/>
      <point x="635" y="1265"/>
      <point x="767" y="1351"/>
      <point x="818" y="1490" type="curve"/>
      <point x="858" y="1490" type="line"/>
      <point x="611" y="0" type="line"/>
    </contour>
  </outline>
</glyph>
<glyph name="zero.dnom" format="2">
  <advance width="709"/>
  <unicode hex="E0B4"/>
  <anchor x="427" y="782" name="m.uni030F_1"/>
  <outline>
    <contour>
      <point x="260" y="-10" type="qcurve" smooth="yes"/>
      <point x="136" y="-10"/>
      <point x="37" y="197"/>
      <point x="68" y="383" type="qcurve" smooth="yes"/>
      <point x="99" y="569"/>
      <point x="266" y="778"/>
      <point x="390" y="778" type="qcurve" smooth="yes"/>
      <point x="509" y="778"/>
      <point x="613" y="576"/>
      <point x="581" y="384" type="qcurve" smooth="yes"/>
      <point x="560" y="256"/>
      <point x="470" y="80"/>
      <point x="341" y="-10"/>
    </contour>
    <contour>
      <point x="268" y="39" type="qcurve" smooth="yes"/>
      <point x="368" y="39"/>
      <point x="504" y="224"/>
      <point x="530" y="385" type="qcurve" smooth="yes"/>
      <point x="556" y="546"/>
      <point x="479" y="729"/>
      <point x="381" y="729" type="qcurve" smooth="yes"/>
      <point x="287" y="729"/>
      <point x="147" y="552"/>
      <point x="119" y="382" type="qcurve" smooth="yes"/>
      <point x="92" y="216"/>
      <point x="173" y="39"/>
    </contour>
  </outline>
</glyph>
<glyph name="two.dnom" format="2">
  <advance width="745"/>
  <unicode hex="E0B6"/>
  <anchor x="376" y="782" name="m.uni030F_1"/>
  <outline>
    <contour>
      <point x="32" y="0" type="line"/>
      <point x="38" y="37" type="line"/>
      <point x="344" y="330" type="line" smooth="yes"/>
      <point x="413" y="396"/>
      <point x="490" y="482"/>
      <point x="526" y="547"/>
      <point x="531" y="582" type="qcurve" smooth="yes"/>
      <point x="542" y="649"/>
      <point x="463" y="730"/>
      <point x="393" y="730" type="qcurve" smooth="yes"/>
      <point x="317" y="730"/>
      <point x="205" y="638"/>
      <point x="192" y="573" type="qcurve"/>
      <point x="141" y="573" type="line"/>
      <point x="155" y="659"/>
      <point x="299" y="777"/>
      <point x="395" y="777" type="qcurve" smooth="yes"/>
      <point x="491" y="777"/>
      <point x="595" y="662"/>
      <point x="581" y="581" type="qcurve" smooth="yes"/>
      <point x="576" y="550"/>
      <point x="551" y="493"/>
      <point x="504" y="429"/>
      <point x="425" y="347"/>
      <point x="366" y="290" type="qcurve" smooth="yes"/>
      <point x="118" y="53" type="line"/>
      <point x="117" y="48" type="line"/>
      <point x="539" y="48" type="line"/>
      <point x="531" y="0" type="line"/>
    </contour>
  </outline>
</glyph>
<glyph name="three.dnom" format="2">
  <advance width="731"/>
  <unicode hex="E0B7"/>
  <anchor x="378" y="782" name="m.uni030F_1"/>
  <outline>
    <contour>
      <point x="286" y="-10" type="qcurve" smooth="yes"/>
      <point x="219" y="-10"/>
      <point x="113" y="38"/>
      <point x="57" y="127"/>
      <point x="65" y="186" type="qcurve"/>
      <point x="118" y="186" type="line"/>
      <point x="110" y="119"/>
      <point x="206" y="37"/>
      <point x="287" y="37" type="qcurve" smooth="yes"/>
      <point x="380" y="37"/>
      <point x="509" y="137"/>
      <point x="521" y="211" type="qcurve" smooth="yes"/>
      <point x="534" y="290"/>
      <point x="430" y="393"/>
      <point x="320" y="393" type="qcurve" smooth="yes"/>
      <point x="270" y="393" type="line"/>
      <point x="278" y="437" type="line"/>
      <point x="558" y="716" type="line"/>
      <point x="559" y="720" type="line"/>
      <point x="189" y="720" type="line"/>
      <point x="198" y="767" type="line"/>
      <point x="643" y="767" type="line"/>
      <point x="636" y="730" type="line"/>
      <point x="316" y="413" type="line"/>
      <point x="318" y="425" type="line"/>
      <point x="407" y="433"/>
      <point x="529" y="379"/>
      <point x="585" y="276"/>
      <point x="573" y="209" type="qcurve" smooth="yes"/>
      <point x="563" y="149"/>
      <point x="485" y="49"/>
      <point x="363" y="-10"/>
    </contour>
  </outline>
</glyph>
<glyph name="eight.dnom" format="2">
  <advance width="724"/>
  <unicode hex="E0BC"/>
  <outline>
    <contour>
      <point x="267" y="-10" type="qcurve" smooth="yes"/>
      <point x="194" y="-10"/>
      <point x="83" y="45"/>
      <point x="28" y="141"/>
      <point x="38" y="201" type="qcurve" smooth="yes"/>
      <point x="50" y="270"/>
      <point x="161" y="381"/>
      <point x="234" y="396" type="qcurve"/>
      <point x="234" y="401" type="line"/>
      <point x="181" y="419"/>
      <point x="117" y="516"/>
      <point x="129" y="582" type="qcurve" smooth="yes"/>
      <point x="144" y="665"/>
      <point x="296" y="778"/>
      <point x="395" y="778" type="qcurve" smooth="yes"/>
      <point x="458" y="778"/>
      <point x="557" y="728"/>
      <point x="608" y="640"/>
      <point x="599" y="583" type="qcurve" smooth="yes"/>
      <point x="590" y="523"/>
      <point x="500" y="421"/>
      <point x="434" y="401" type="qcurve"/>
      <point x="434" y="397" type="line"/>
      <point x="505" y="382"/>
      <point x="577" y="265"/>
      <point x="564" y="197" type="qcurve" smooth="yes"/>
      <point x="553" y="138"/>
      <point x="468" y="44"/>
      <point x="341" y="-10"/>
    </contour>
    <contour>
      <point x="268" y="37" type="qcurve" smooth="yes"/>
      <point x="361" y="37"/>
      <point x="502" y="135"/>
      <point x="512" y="205" type="qcurve" smooth="yes"/>
      <point x="523" y="275"/>
      <point x="424" y="374"/>
      <point x="334" y="374" type="qcurve" smooth="yes"/>
      <point x="244" y="374"/>
      <point x="101" y="273"/>
      <point x="90" y="202" type="qcurve" smooth="yes"/>
      <point x="79" y="131"/>
      <point x="180" y="37"/>
    </contour>
    <contour>
      <point x="331" y="417" type="qcurve" smooth="yes"/>
      <point x="408" y="417"/>
      <point x="537" y="512"/>
      <point x="547" y="579" type="qcurve" smooth="yes"/>
      <point x="557" y="647"/>
      <point x="467" y="731"/>
      <point x="393" y="731" type="qcurve" smooth="yes"/>
      <point x="319" y="731"/>
      <point x="190" y="645"/>
      <point x="179" y="575" type="qcurve" smooth="yes"/>
      <point x="169" y="505"/>
      <point x="260" y="417"/>
    </contour>
  </outline>
</glyph>
<glyph name="nine.dnom" format="2">
  <advance width="676"/>
  <unicode hex="E0BD"/>
  <outline>
    <contour>
      <point x="374" y="778" type="qcurve" smooth="yes"/>
      <point x="442" y="778"/>
      <point x="538" y="713"/>
      <point x="583" y="604"/>
      <point x="573" y="537" type="qcurve" smooth="yes"/>
      <point x="566" y="491"/>
      <point x="524" y="403"/>
      <point x="479" y="353" type="qcurve" smooth="yes"/>
      <point x="159" y="0" type="line"/>
      <point x="99" y="0" type="line"/>
      <point x="412" y="353" type="line"/>
      <point x="421" y="353" type="line"/>
      <point x="408" y="334"/>
      <point x="335" y="301"/>
      <point x="290" y="301" type="qcurve" smooth="yes"/>
      <point x="190" y="301"/>
      <point x="78" y="434"/>
      <point x="95" y="537" type="qcurve" smooth="yes"/>
      <point x="106" y="604"/>
      <point x="187" y="713"/>
      <point x="307" y="778"/>
    </contour>
    <contour>
      <point x="370" y="731" type="qcurve" smooth="yes"/>
      <point x="291" y="731"/>
      <point x="160" y="620"/>
      <point x="146" y="540" type="qcurve" smooth="yes"/>
      <point x="131" y="456"/>
      <point x="219" y="343"/>
      <point x="298" y="343" type="qcurve" smooth="yes"/>
      <point x="375" y="343"/>
      <point x="507" y="449"/>
      <point x="522" y="533" type="qcurve" smooth="yes"/>
      <point x="537" y="617"/>
      <point x="450" y="731"/>
    </contour>
  </outline>
</glyph>
<glyph name="minus.numr" format="2">
  <advance width="787"/>
  <unicode hex="E0D8"/>
  <outline>
    <contour>
      <point x="751" y="1152" type="line"/>
      <point x="743" y="1108" type="line"/>
      <point x="225" y="1108" type="line"/>
      <point x="233" y="1152" type="line"/>
    </contour>
  </outline>
</glyph>
<glyph name="dotmacron.lc" format="2">
  <advance width="372"/>
  <unicode hex="E10C"/>
  <outline>
    <contour>
      <point x="609" y="1704" type="line"/>
      <point x="601" y="1658" type="line"/>
      <point x="135" y="1658" type="line"/>
      <point x="143" y="1704" type="line"/>
    </contour>
    <contour>
      <point x="274" y="1319" type="line"/>
      <point x="293" y="1434" type="line"/>
      <point x="357" y="1434" type="line"/>
      <point x="338" y="1319" type="line"/>
    </contour>
  </outline>
</glyph>
<glyph name="_part.cyrtic_center" format="2">
  <advance width="174"/>
  <outline>
    <contour>
      <point x="-82" y="-320" type="line"/>
      <point x="-25" y="24" type="line"/>
      <point x="21" y="24" type="line"/>
      <point x="-36" y="-320" type="line"/>
    </contour>
  </outline>
</glyph>
<glyph name="_part.f_base" format="2">
  <advance width="679"/>
  <anchor x="890" y="1655" name="m.uni030F_1"/>
  <outline>
    <contour>
      <point x="202" y="0" type="line"/>
      <point x="417" y="1300" type="line" smooth="yes"/>
      <point x="430" y="1379"/>
      <point x="520" y="1493"/>
      <point x="646" y="1556"/>
      <point x="714" y="1556" type="qcurve" smooth="yes"/>
      <point x="741" y="1556"/>
      <point x="782" y="1548"/>
      <point x="802" y="1540" type="qcurve"/>
      <point x="778" y="1499" type="line"/>
      <point x="762" y="1505"/>
      <point x="732" y="1510"/>
      <point x="707" y="1510" type="qcurve" smooth="yes"/>
      <point x="625" y="1510"/>
      <point x="480" y="1398"/>
      <point x="463" y="1300" type="qcurve"/>
      <point x="248" y="0" type="line"/>
    </contour>
  </outline>
</glyph>
<glyph name="braceright.tf" format="2">
  <advance width="800"/>
  <outline>
    <contour>
      <point x="650" y="629" type="line"/>
      <point x="577" y="629"/>
      <point x="481" y="657"/>
      <point x="429" y="718"/>
      <point x="418" y="817"/>
      <point x="430" y="889" type="qcurve" smooth="yes"/>
      <point x="493" y="1271" type="line" smooth="yes"/>
      <point x="516" y="1411"/>
      <point x="434" y="1536"/>
      <point x="320" y="1536" type="qcurve"/>
      <point x="327" y="1582" type="line"/>
      <point x="395" y="1582"/>
      <point x="488" y="1544"/>
      <point x="540" y="1467"/>
      <point x="553" y="1350"/>
      <point x="540" y="1271" type="qcurve" smooth="yes"/>
      <point x="477" y="889" type="line" smooth="yes"/>
      <point x="457" y="765"/>
      <point x="531" y="675"/>
      <point x="657" y="675" type="qcurve"/>
    </contour>
    <contour>
      <point x="19" y="-280" type="qcurve"/>
      <point x="27" y="-234" type="line"/>
      <point x="141" y="-234"/>
      <point x="265" y="-108"/>
      <point x="288" y="31" type="qcurve" smooth="yes"/>
      <point x="351" y="413" type="line" smooth="yes"/>
      <point x="363" y="485"/>
      <point x="407" y="585"/>
      <point x="479" y="647"/>
      <point x="584" y="675"/>
      <point x="657" y="675" type="qcurve"/>
      <point x="650" y="629" type="line"/>
      <point x="524" y="629"/>
      <point x="418" y="538"/>
      <point x="398" y="413" type="qcurve" smooth="yes"/>
      <point x="335" y="31" type="line" smooth="yes"/>
      <point x="322" y="-48"/>
      <point x="270" y="-165"/>
      <point x="192" y="-242"/>
      <point x="87" y="-280"/>
    </contour>
    <contour>
      <point x="650" y="629" type="line"/>
      <point x="494" y="629" type="line"/>
      <point x="501" y="675" type="line"/>
      <point x="657" y="675" type="line"/>
    </contour>
  </outline>
</glyph>
<glyph name="circumflextildecomb.cn" format="2">
  <advance width="864"/>
  <outline>
    <contour>
      <point x="328" y="1252" type="line"/>
      <point x="274" y="1252" type="line"/>
      <point x="275" y="1258" type="line"/>
      <point x="587" y="1532" type="line"/>
      <point x="599" y="1532" type="line"/>
      <point x="821" y="1258" type="line"/>
      <point x="820" y="1252" type="line"/>
      <point x="764" y="1252" type="line"/>
      <point x="583" y="1476" type="line"/>
    </contour>
    <contour>
      <point x="746" y="1673" type="qcurve" smooth="yes"/>
      <point x="704" y="1673"/>
      <point x="648" y="1709"/>
      <point x="603" y="1755"/>
      <point x="555" y="1791"/>
      <point x="520" y="1791" type="qcurve" smooth="yes"/>
      <point x="471" y="1791"/>
      <point x="399" y="1732"/>
      <point x="386" y="1680" type="qcurve"/>
      <point x="340" y="1680" type="line"/>
      <point x="357" y="1748"/>
      <point x="456" y="1837"/>
      <point x="520" y="1837" type="qcurve" smooth="yes"/>
      <point x="567" y="1837"/>
      <point x="626" y="1801"/>
      <point x="670" y="1755"/>
      <point x="714" y="1719"/>
      <point x="745" y="1719" type="qcurve" smooth="yes"/>
      <point x="788" y="1719"/>
      <point x="851" y="1769"/>
      <point x="873" y="1826" type="qcurve"/>
      <point x="920" y="1826" type="line"/>
      <point x="896" y="1755"/>
      <point x="803" y="1673"/>
    </contour>
  </outline>
</glyph>
<glyph name="exclamdown.case" format="2">
  <advance width="538"/>
  <outline>
    <contour>
      <point x="313" y="1056" type="line"/>
      <point x="138" y="0" type="line"/>
      <point x="92" y="0" type="line"/>
      <point x="267" y="1056" type="line"/>
    </contour>
    <contour>
      <point x="407" y="1490" type="line"/>
      <point x="392" y="1400" type="line"/>
      <point x="302" y="1400" type="line"/>
      <point x="317" y="1490" type="line"/>
    </contour>
  </outline>
</glyph>
<glyph name="ishortcyr.loclBGR" format="2">
  <advance width="1199"/>
  <outline>
    <contour>
      <point x="503" y="-16" type="qcurve" smooth="yes"/>
      <point x="389" y="-16"/>
      <point x="225" y="81"/>
      <point x="150" y="254"/>
      <point x="169" y="368" type="qcurve" smooth="yes"/>
      <point x="293" y="1118" type="line"/>
      <point x="339" y="1118" type="line"/>
      <point x="215" y="368" type="line" smooth="yes"/>
      <point x="190" y="216"/>
      <point x="351" y="30"/>
      <point x="503" y="30" type="qcurve" smooth="yes"/>
      <point x="607" y="30"/>
      <point x="786" y="117"/>
      <point x="907" y="270"/>
      <point x="923" y="368" type="qcurve" smooth="yes"/>
      <point x="1047" y="1118" type="line"/>
      <point x="1093" y="1118" type="line"/>
      <point x="908" y="0" type="line"/>
      <point x="862" y="0" type="line"/>
      <point x="902" y="240" type="line"/>
      <point x="914" y="240" type="line"/>
      <point x="856" y="112"/>
      <point x="631" y="-16"/>
    </contour>
    <contour>
      <point x="718" y="1270" type="qcurve" smooth="yes"/>
      <point x="645" y="1270"/>
      <point x="538" y="1341"/>
      <point x="488" y="1460"/>
      <point x="500" y="1532" type="qcurve"/>
      <point x="546" y="1532" type="line"/>
      <point x="531" y="1441"/>
      <point x="637" y="1314"/>
      <point x="726" y="1314" type="qcurve" smooth="yes"/>
      <point x="786" y="1314"/>
      <point x="893" y="1373"/>
      <point x="968" y="1472"/>
      <point x="978" y="1532" type="qcurve"/>
      <point x="1024" y="1532" type="line"/>
      <point x="1012" y="1460"/>
      <point x="922" y="1341"/>
      <point x="792" y="1270"/>
    </contour>
  </outline>
</glyph>
<glyph name="ogonek.e" format="2">
  <advance width="478"/>
  <outline>
    <contour>
      <point x="51" y="-426" type="qcurve" smooth="yes"/>
      <point x="-11" y="-426"/>
      <point x="-108" y="-352"/>
      <point x="-95" y="-271" type="qcurve" smooth="yes"/>
      <point x="-81" y="-191"/>
      <point x="60" y="-12"/>
      <point x="137" y="74" type="qcurve"/>
      <point x="298" y="198" type="line"/>
      <point x="253" y="140"/>
      <point x="141" y="17"/>
      <point x="35" y="-105"/>
      <point x="-41" y="-221"/>
      <point x="-49" y="-271" type="qcurve" smooth="yes"/>
      <point x="-59" y="-332"/>
      <point x="16" y="-380"/>
      <point x="59" y="-380" type="qcurve" smooth="yes"/>
      <point x="76" y="-380"/>
      <point x="106" y="-374"/>
      <point x="120" y="-369" type="qcurve"/>
      <point x="130" y="-412" type="line"/>
      <point x="111" y="-419"/>
      <point x="72" y="-426"/>
    </contour>
  </outline>
</glyph>
<glyph name="ogonek.y" format="2">
  <advance width="397"/>
  <outline>
    <contour>
      <point x="93" y="-426" type="qcurve" smooth="yes"/>
      <point x="25" y="-426"/>
      <point x="-64" y="-375"/>
      <point x="-86" y="-283"/>
      <point x="-54" y="-221" type="qcurve"/>
      <point x="98" y="0" type="line"/>
      <point x="-7" y="-204" type="line" smooth="yes"/>
      <point x="-50" y="-289"/>
      <point x="13" y="-380"/>
      <point x="101" y="-380" type="qcurve" smooth="yes"/>
      <point x="118" y="-380"/>
      <point x="148" y="-374"/>
      <point x="162" y="-369" type="qcurve"/>
      <point x="172" y="-412" type="line"/>
      <point x="153" y="-419"/>
      <point x="114" y="-426"/>
    </contour>
  </outline>
</glyph>
<glyph name="quoteleft.ss03" format="2">
  <advance width="568"/>
  <outline>
    <contour>
      <point x="453" y="1497" type="qcurve"/>
      <point x="494" y="1489" type="line"/>
      <point x="473" y="1430"/>
      <point x="430" y="1310"/>
      <point x="388" y="1191"/>
      <point x="366" y="1131" type="qcurve"/>
      <point x="365" y="1124"/>
      <point x="363" y="1108"/>
      <point x="361" y="1100" type="qcurve"/>
      <point x="334" y="1100" type="line"/>
      <point x="338" y="1123"/>
      <point x="367" y="1154"/>
      <point x="389" y="1154" type="qcurve" smooth="yes"/>
      <point x="412" y="1154"/>
      <point x="438" y="1123"/>
      <point x="434" y="1100" type="qcurve" smooth="yes"/>
      <point x="430" y="1076"/>
      <point x="393" y="1046"/>
      <point x="367" y="1046" type="qcurve" smooth="yes"/>
      <point x="336" y="1046"/>
      <point x="307" y="1094"/>
      <point x="323" y="1139" type="qcurve" smooth="yes"/>
      <point x="345" y="1199"/>
      <point x="388" y="1318"/>
      <point x="432" y="1438"/>
    </contour>
  </outline>
</glyph>
<glyph name="semicolon.ss03" format="2">
  <advance width="554"/>
  <outline>
    <contour>
      <point x="97" y="-353" type="qcurve"/>
      <point x="56" y="-345" type="line"/>
      <point x="77" y="-285"/>
      <point x="120" y="-166"/>
      <point x="163" y="-46"/>
      <point x="184" y="13" type="qcurve"/>
      <point x="186" y="21"/>
      <point x="188" y="37"/>
      <point x="189" y="44" type="qcurve"/>
      <point x="216" y="44" type="line"/>
      <point x="212" y="22"/>
      <point x="184" y="-10"/>
      <point x="161" y="-10" type="qcurve" smooth="yes"/>
      <point x="139" y="-10"/>
      <point x="112" y="22"/>
      <point x="116" y="44" type="qcurve" smooth="yes"/>
      <point x="120" y="68"/>
      <point x="158" y="98"/>
      <point x="183" y="98" type="qcurve" smooth="yes"/>
      <point x="215" y="98"/>
      <point x="244" y="50"/>
      <point x="227" y="5" type="qcurve" smooth="yes"/>
      <point x="206" y="-54"/>
      <point x="162" y="-174"/>
      <point x="119" y="-293"/>
    </contour>
    <contour>
      <point x="334" y="955" type="qcurve" smooth="yes"/>
      <point x="312" y="955"/>
      <point x="286" y="986"/>
      <point x="290" y="1008" type="qcurve" smooth="yes"/>
      <point x="294" y="1030"/>
      <point x="330" y="1061"/>
      <point x="352" y="1061" type="qcurve" smooth="yes"/>
      <point x="374" y="1061"/>
      <point x="400" y="1030"/>
      <point x="396" y="1008" type="qcurve" smooth="yes"/>
      <point x="392" y="986"/>
      <point x="356" y="955"/>
    </contour>
  </outline>
</glyph>
<glyph name="slashshortcomb.lc" format="2">
  <advance width="381"/>
  <outline>
    <contour>
      <point x="49" y="855" type="line"/>
      <point x="57" y="904" type="line"/>
      <point x="475" y="1126" type="line"/>
      <point x="467" y="1077" type="line"/>
    </contour>
  </outline>
</glyph>
